<?xml version="1.0" encoding="UTF-8" standalone="no"?>
<!DOCTYPE svg PUBLIC "-//W3C//DTD SVG 1.1//EN" "http://www.w3.org/Graphics/SVG/1.1/DTD/svg11.dtd">
<svg width="100%" height="100%" viewBox="0 0 3404 668" version="1.1" xmlns="http://www.w3.org/2000/svg"
     xml:space="preserve" xmlns:serif="http://www.serif.com/"
     style="fill-rule:evenodd;clip-rule:evenodd;stroke-linejoin:round;stroke-miterlimit:2;">
    <g transform="matrix(1,0,0,1,-1160.09,-9217.84)">
        <g id="logo-motto" serif:id="logo motto" transform="matrix(0.886458,0,0,0.30915,1160.09,9217.84)">
            <rect x="0" y="0" width="3840" height="2160" style="fill:none;"/>
            <g transform="matrix(1.12808,0,0,1.77223,-246.998,-938.973)">
                <g>
                    <g transform="matrix(2.11024,0,0,3.85162,-858.631,833.72)">
                        <g>
                            <path d="M1048.56,194.876L1048.56,210.184L1042.87,210.184L1042.87,172.488L1049.32,172.488C1052.48,172.488 1054.86,172.708 1056.47,173.148C1058.1,173.587 1059.53,174.417 1060.77,175.638C1062.93,177.754 1064.02,180.423 1064.02,183.646C1064.02,187.096 1062.86,189.831 1060.55,191.849C1058.24,193.867 1055.12,194.876 1051.2,194.876L1048.56,194.876ZM1048.56,189.603L1050.69,189.603C1055.91,189.603 1058.52,187.593 1058.52,183.572C1058.52,179.682 1055.83,177.737 1050.44,177.737L1048.56,177.737L1048.56,189.603Z" style="fill:url(#_Linear1);fill-rule:nonzero;"/>
                            <path d="M1082.64,194.119L1094.32,210.184L1087.36,210.184L1076.59,194.754L1075.57,194.754L1075.57,210.184L1069.88,210.184L1069.88,172.488L1076.54,172.488C1081.52,172.488 1085.12,173.424 1087.33,175.296C1089.77,177.379 1091,180.13 1091,183.548C1091,186.217 1090.23,188.512 1088.7,190.433C1087.17,192.353 1085.15,193.582 1082.64,194.119ZM1075.57,189.798L1077.37,189.798C1082.76,189.798 1085.45,187.739 1085.45,183.621C1085.45,179.764 1082.83,177.835 1077.59,177.835L1075.57,177.835L1075.57,189.798Z" style="fill:url(#_Linear2);fill-rule:nonzero;"/>
                            <path d="M1097.25,191.165C1097.25,185.859 1099.19,181.302 1103.08,177.493C1106.95,173.685 1111.61,171.78 1117.04,171.78C1122.41,171.78 1127.02,173.701 1130.86,177.542C1134.72,181.383 1136.65,185.998 1136.65,191.385C1136.65,196.805 1134.71,201.403 1130.84,205.179C1126.95,208.971 1122.25,210.867 1116.75,210.867C1111.88,210.867 1107.52,209.183 1103.64,205.814C1099.38,202.086 1097.25,197.204 1097.25,191.165ZM1102.98,191.238C1102.98,195.405 1104.38,198.831 1107.18,201.517C1109.96,204.202 1113.18,205.545 1116.83,205.545C1120.78,205.545 1124.12,204.178 1126.83,201.443C1129.55,198.677 1130.91,195.307 1130.91,191.336C1130.91,187.316 1129.57,183.947 1126.88,181.229C1124.21,178.494 1120.91,177.127 1116.97,177.127C1113.05,177.127 1109.74,178.494 1107.04,181.229C1104.33,183.93 1102.98,187.267 1102.98,191.238Z" style="fill:url(#_Linear3);fill-rule:nonzero;"/>
                            <path d="M1155.28,172.488L1155.28,196.878C1155.28,199.791 1155.07,201.964 1154.67,203.397C1154.26,205.024 1153.57,206.4 1152.59,207.523C1150.69,209.752 1148.16,210.867 1145.02,210.867C1142.65,210.867 1140.42,210.249 1138.36,209.012L1141.14,204.153C1142.53,205.081 1143.82,205.545 1145.02,205.545C1146.72,205.545 1147.89,204.902 1148.54,203.616C1149.22,202.331 1149.56,200.084 1149.56,196.878L1149.56,172.488L1155.28,172.488Z" style="fill:url(#_Linear4);fill-rule:nonzero;"/>
                            <path d="M1185.11,177.835L1170,177.835L1170,186.893L1184.67,186.893L1184.67,192.239L1170,192.239L1170,204.837L1185.11,204.837L1185.11,210.184L1164.31,210.184L1164.31,172.488L1185.11,172.488L1185.11,177.835Z" style="fill:url(#_Linear5);fill-rule:nonzero;"/>
                            <path d="M1220.44,174.515L1220.44,181.253C1217.15,178.502 1213.75,177.127 1210.23,177.127C1206.36,177.127 1203.1,178.519 1200.44,181.302C1197.77,184.069 1196.44,187.454 1196.44,191.458C1196.44,195.413 1197.77,198.75 1200.44,201.468C1203.11,204.186 1206.38,205.545 1210.26,205.545C1212.26,205.545 1213.96,205.22 1215.36,204.568C1216.14,204.243 1216.95,203.804 1217.79,203.25C1218.63,202.697 1219.51,202.029 1220.44,201.248L1220.44,208.109C1217.18,209.948 1213.77,210.867 1210.18,210.867C1204.8,210.867 1200.2,208.987 1196.39,205.228C1192.6,201.435 1190.7,196.862 1190.7,191.507C1190.7,186.706 1192.29,182.425 1195.46,178.665C1199.37,174.059 1204.42,171.756 1210.62,171.756C1214.01,171.756 1217.28,172.676 1220.44,174.515Z" style="fill:url(#_Linear6);fill-rule:nonzero;"/>
                            <path d="M1238.02,177.835L1238.02,210.184L1232.33,210.184L1232.33,177.835L1223.66,177.835L1223.66,172.488L1246.66,172.488L1246.66,177.835L1238.02,177.835Z" style="fill:url(#_Linear7);fill-rule:nonzero;"/>
                            <path d="M1289.31,201.028L1273.17,201.028L1268.97,210.184L1262.85,210.184L1281.5,170.12L1299.49,210.184L1293.27,210.184L1289.31,201.028ZM1286.99,195.682L1281.4,182.864L1275.54,195.682L1286.99,195.682Z" style="fill:url(#_Linear8);fill-rule:nonzero;"/>
                            <path d="M1304.2,210.184L1304.2,169.925L1331.69,198.685L1331.69,172.488L1337.38,172.488L1337.38,212.479L1309.89,183.792L1309.89,210.184L1304.2,210.184Z" style="fill:url(#_Linear9);fill-rule:nonzero;"/>
                            <path d="M1346.41,210.184L1346.41,172.488L1354.33,172.488C1358.12,172.488 1361.11,172.863 1363.31,173.611C1365.67,174.344 1367.81,175.589 1369.73,177.347C1373.62,180.895 1375.57,185.558 1375.57,191.336C1375.57,197.13 1373.54,201.818 1369.49,205.399C1367.45,207.189 1365.32,208.434 1363.09,209.134C1361.01,209.834 1358.05,210.184 1354.23,210.184L1346.41,210.184ZM1352.1,204.837L1354.67,204.837C1357.22,204.837 1359.35,204.568 1361.04,204.031C1362.73,203.462 1364.26,202.558 1365.63,201.321C1368.43,198.766 1369.83,195.438 1369.83,191.336C1369.83,187.202 1368.44,183.849 1365.68,181.277C1363.19,178.983 1359.52,177.835 1354.67,177.835L1352.1,177.835L1352.1,204.837Z" style="fill:url(#_Linear10);fill-rule:nonzero;"/>
                            <path d="M1408.55,177.835L1408.55,210.184L1402.86,210.184L1402.86,177.835L1394.19,177.835L1394.19,172.488L1417.19,172.488L1417.19,177.835L1408.55,177.835Z" style="fill:url(#_Linear11);fill-rule:nonzero;"/>
                            <path d="M1442.36,201.028L1426.22,201.028L1422.03,210.184L1415.9,210.184L1434.55,170.12L1452.54,210.184L1446.32,210.184L1442.36,201.028ZM1440.04,195.682L1434.45,182.864L1428.59,195.682L1440.04,195.682Z" style="fill:url(#_Linear12);fill-rule:nonzero;"/>
                            <path d="M1478.57,178.104L1473.95,180.838C1473.09,179.341 1472.27,178.364 1471.49,177.908C1470.67,177.387 1469.62,177.127 1468.34,177.127C1466.76,177.127 1465.45,177.575 1464.41,178.47C1463.37,179.349 1462.85,180.456 1462.85,181.79C1462.85,183.629 1464.21,185.11 1466.95,186.234L1470.71,187.772C1473.77,189.009 1476,190.518 1477.42,192.3C1478.84,194.083 1479.54,196.268 1479.54,198.856C1479.54,202.322 1478.39,205.187 1476.08,207.449C1473.75,209.728 1470.86,210.867 1467.41,210.867C1464.14,210.867 1461.44,209.899 1459.31,207.962C1457.2,206.025 1455.89,203.299 1455.37,199.783L1461.14,198.514C1461.4,200.727 1461.85,202.257 1462.5,203.104C1463.67,204.731 1465.38,205.545 1467.63,205.545C1469.4,205.545 1470.88,204.951 1472.05,203.763C1473.22,202.575 1473.81,201.069 1473.81,199.246C1473.81,198.514 1473.7,197.842 1473.5,197.232C1473.3,196.622 1472.98,196.06 1472.55,195.547C1472.12,195.035 1471.56,194.555 1470.88,194.107C1470.19,193.659 1469.38,193.232 1468.44,192.825L1464.8,191.312C1459.64,189.131 1457.06,185.941 1457.06,181.741C1457.06,178.909 1458.14,176.541 1460.31,174.637C1462.47,172.716 1465.16,171.756 1468.39,171.756C1472.73,171.756 1476.13,173.872 1478.57,178.104Z" style="fill:url(#_Linear13);fill-rule:nonzero;"/>
                            <path d="M1492.09,187.527L1506.77,172.488L1514.36,172.488L1497.32,189.554L1514.46,210.184L1506.84,210.184L1493.27,193.411L1492.09,194.583L1492.09,210.184L1486.4,210.184L1486.4,172.488L1492.09,172.488L1492.09,187.527Z" style="fill:url(#_Linear14);fill-rule:nonzero;"/>
                            <path d="M1533.65,210.184L1541.58,169.656L1554.52,198.953L1567.92,169.656L1575.05,210.184L1569.22,210.184L1565.58,187.43L1554.42,211.917L1543.58,187.405L1539.53,210.184L1533.65,210.184Z" style="fill:url(#_Linear15);fill-rule:nonzero;"/>
                            <path d="M1605.18,201.028L1589.04,201.028L1584.84,210.184L1578.71,210.184L1597.37,170.12L1615.36,210.184L1609.13,210.184L1605.18,201.028ZM1602.86,195.682L1597.27,182.864L1591.41,195.682L1602.86,195.682Z" style="fill:url(#_Linear16);fill-rule:nonzero;"/>
                            <path d="M1620.07,210.184L1620.07,169.925L1647.56,198.685L1647.56,172.488L1653.25,172.488L1653.25,212.479L1625.76,183.792L1625.76,210.184L1620.07,210.184Z" style="fill:url(#_Linear17);fill-rule:nonzero;"/>
                            <path d="M1684.72,201.028L1668.58,201.028L1664.38,210.184L1658.26,210.184L1676.91,170.12L1694.9,210.184L1688.67,210.184L1684.72,201.028ZM1682.4,195.682L1676.81,182.864L1670.95,195.682L1682.4,195.682Z" style="fill:url(#_Linear18);fill-rule:nonzero;"/>
                            <path d="M1717.29,190.555L1732.87,190.555L1732.87,191.8C1732.87,194.632 1732.53,197.138 1731.86,199.319C1731.21,201.338 1730.11,203.226 1728.57,204.984C1725.07,208.922 1720.62,210.892 1715.21,210.892C1709.94,210.892 1705.42,208.987 1701.66,205.179C1697.9,201.354 1696.02,196.764 1696.02,191.409C1696.02,185.941 1697.94,181.302 1701.76,177.493C1705.59,173.668 1710.24,171.756 1715.73,171.756C1718.67,171.756 1721.42,172.358 1723.98,173.563C1726.42,174.767 1728.82,176.72 1731.18,179.422L1727.13,183.304C1724.04,179.186 1720.27,177.127 1715.82,177.127C1711.84,177.127 1708.49,178.502 1705.79,181.253C1703.09,183.955 1701.74,187.34 1701.74,191.409C1701.74,195.609 1703.24,199.067 1706.25,201.785C1709.07,204.308 1712.12,205.569 1715.41,205.569C1718.21,205.569 1720.72,204.625 1722.95,202.737C1725.18,200.833 1726.43,198.554 1726.69,195.901L1717.29,195.901L1717.29,190.555Z" style="fill:url(#_Linear19);fill-rule:nonzero;"/>
                            <path d="M1760.82,177.835L1745.71,177.835L1745.71,186.893L1760.38,186.893L1760.38,192.239L1745.71,192.239L1745.71,204.837L1760.82,204.837L1760.82,210.184L1740.02,210.184L1740.02,172.488L1760.82,172.488L1760.82,177.835Z" style="fill:url(#_Linear20);fill-rule:nonzero;"/>
                            <path d="M1766.97,210.184L1774.91,169.656L1787.85,198.953L1801.25,169.656L1808.38,210.184L1802.54,210.184L1798.9,187.43L1787.75,211.917L1776.91,187.405L1772.86,210.184L1766.97,210.184Z" style="fill:url(#_Linear21);fill-rule:nonzero;"/>
                            <path d="M1837.16,177.835L1822.05,177.835L1822.05,186.893L1836.72,186.893L1836.72,192.239L1822.05,192.239L1822.05,204.837L1837.16,204.837L1837.16,210.184L1816.36,210.184L1816.36,172.488L1837.16,172.488L1837.16,177.835Z" style="fill:url(#_Linear22);fill-rule:nonzero;"/>
                            <path d="M1844.63,210.184L1844.63,169.925L1872.12,198.685L1872.12,172.488L1877.81,172.488L1877.81,212.479L1850.32,183.792L1850.32,210.184L1844.63,210.184Z" style="fill:url(#_Linear23);fill-rule:nonzero;"/>
                            <path d="M1897.25,177.835L1897.25,210.184L1891.56,210.184L1891.56,177.835L1882.89,177.835L1882.89,172.488L1905.89,172.488L1905.89,177.835L1897.25,177.835Z" style="fill:url(#_Linear24);fill-rule:nonzero;"/>
                            <path d="M1947.71,178.104L1943.09,180.838C1942.23,179.341 1941.41,178.364 1940.63,177.908C1939.82,177.387 1938.77,177.127 1937.48,177.127C1935.9,177.127 1934.59,177.575 1933.55,178.47C1932.51,179.349 1931.99,180.456 1931.99,181.79C1931.99,183.629 1933.35,185.11 1936.09,186.234L1939.85,187.772C1942.91,189.009 1945.14,190.518 1946.56,192.3C1947.98,194.083 1948.68,196.268 1948.68,198.856C1948.68,202.322 1947.53,205.187 1945.22,207.449C1942.89,209.728 1940,210.867 1936.55,210.867C1933.28,210.867 1930.58,209.899 1928.45,207.962C1926.35,206.025 1925.04,203.299 1924.52,199.783L1930.28,198.514C1930.54,200.727 1930.99,202.257 1931.64,203.104C1932.82,204.731 1934.53,205.545 1936.77,205.545C1938.55,205.545 1940.02,204.951 1941.19,203.763C1942.36,202.575 1942.95,201.069 1942.95,199.246C1942.95,198.514 1942.85,197.842 1942.64,197.232C1942.44,196.622 1942.12,196.06 1941.69,195.547C1941.26,195.035 1940.7,194.555 1940.02,194.107C1939.33,193.659 1938.52,193.232 1937.58,192.825L1933.94,191.312C1928.78,189.131 1926.2,185.941 1926.2,181.741C1926.2,178.909 1927.28,176.541 1929.45,174.637C1931.61,172.716 1934.31,171.756 1937.53,171.756C1941.87,171.756 1945.27,173.872 1947.71,178.104Z" style="fill:url(#_Linear25);fill-rule:nonzero;"/>
                            <path d="M1962.82,193.9L1950.52,172.488L1957.06,172.488L1965.68,187.552L1974.32,172.488L1980.86,172.488L1968.51,193.9L1968.51,210.184L1962.82,210.184L1962.82,193.9Z" style="fill:url(#_Linear26);fill-rule:nonzero;"/>
                            <path d="M2005.37,178.104L2000.76,180.838C1999.9,179.341 1999.08,178.364 1998.29,177.908C1997.48,177.387 1996.43,177.127 1995.14,177.127C1993.57,177.127 1992.26,177.575 1991.21,178.47C1990.17,179.349 1989.65,180.456 1989.65,181.79C1989.65,183.629 1991.02,185.11 1993.75,186.234L1997.51,187.772C2000.57,189.009 2002.81,190.518 2004.23,192.3C2005.64,194.083 2006.35,196.268 2006.35,198.856C2006.35,202.322 2005.19,205.187 2002.88,207.449C2000.56,209.728 1997.67,210.867 1994.22,210.867C1990.95,210.867 1988.24,209.899 1986.11,207.962C1984.01,206.025 1982.7,203.299 1982.18,199.783L1987.94,198.514C1988.2,200.727 1988.66,202.257 1989.31,203.104C1990.48,204.731 1992.19,205.545 1994.44,205.545C1996.21,205.545 1997.68,204.951 1998.86,203.763C2000.03,202.575 2000.61,201.069 2000.61,199.246C2000.61,198.514 2000.51,197.842 2000.31,197.232C2000.11,196.622 1999.79,196.06 1999.36,195.547C1998.92,195.035 1998.37,194.555 1997.68,194.107C1997,193.659 1996.19,193.232 1995.24,192.825L1991.61,191.312C1986.44,189.131 1983.87,185.941 1983.87,181.741C1983.87,178.909 1984.95,176.541 1987.11,174.637C1989.28,172.716 1991.97,171.756 1995.19,171.756C1999.54,171.756 2002.93,173.872 2005.37,178.104Z" style="fill:url(#_Linear27);fill-rule:nonzero;"/>
                            <path d="M2024.32,177.835L2024.32,210.184L2018.63,210.184L2018.63,177.835L2009.96,177.835L2009.96,172.488L2032.96,172.488L2032.96,177.835L2024.32,177.835Z" style="fill:url(#_Linear28);fill-rule:nonzero;"/>
                            <path d="M2058.84,177.835L2043.73,177.835L2043.73,186.893L2058.4,186.893L2058.4,192.239L2043.73,192.239L2043.73,204.837L2058.84,204.837L2058.84,210.184L2038.04,210.184L2038.04,172.488L2058.84,172.488L2058.84,177.835Z" style="fill:url(#_Linear29);fill-rule:nonzero;"/>
                            <path d="M2064.99,210.184L2072.93,169.656L2085.87,198.953L2099.27,169.656L2106.4,210.184L2100.57,210.184L2096.93,187.43L2085.77,211.917L2074.93,187.405L2070.88,210.184L2064.99,210.184Z" style="fill:url(#_Linear30);fill-rule:nonzero;"/>
                        </g>
                    </g>
                    <g transform="matrix(0.775213,0,0,1.41492,-798.891,637.098)">
                        <g transform="matrix(0.984605,0.568462,-0.984605,0.568462,943.102,-2367.6)">
                            <path d="M2802.36,1996.11C2802.36,1996.11 2900.72,1996.38 2972.68,1996.57C3026.46,1996.72 3059.69,1963.77 3059.85,1910.14C3059.85,1910.14 3060.61,1655.58 3060.61,1655.58C3060.7,1624.47 3041.57,1586.07 3010.43,1554.89C2979.3,1523.7 2940.9,1504.48 2909.74,1504.48L2656.7,1504.48C2603.04,1504.48 2569.98,1537.54 2569.98,1591.2C2569.98,1754.99 2569.98,2133.69 2569.98,2133.69C2569.98,2145.83 2581.36,2161.37 2595.37,2168.38C2609.39,2175.38 2620.76,2171.22 2620.76,2159.08L2620.76,1616.59C2620.76,1578.64 2644.14,1555.26 2682.09,1555.26C2751.26,1555.26 2855.53,1555.26 2935.13,1555.26C2950.56,1555.26 2969.57,1564.78 2984.98,1580.22C3000.4,1595.66 3009.88,1614.67 3009.83,1630.08C3009.59,1710.08 3009.27,1815.11 3009.07,1884.64C3008.95,1922.59 2985.44,1945.89 2947.39,1945.79C2875.43,1945.6 2777.07,1945.33 2777.07,1945.33C2764.91,1945.3 2760.71,1956.65 2767.69,1970.66C2774.67,1984.68 2790.2,1996.08 2802.36,1996.11Z" style="fill:url(#_Linear31);"/>
                        </g>
                        <g transform="matrix(0.984605,0.568462,-0.984605,0.568462,927.639,-2240.22)">
                            <path d="M2806.14,1992.32C2806.14,1992.32 2904,1992.59 2975.9,1992.78C3030.04,1992.93 3063.32,1959.55 3063.07,1905.36C3062.57,1798.06 3061.72,1613.3 3061.72,1613.3C3061.66,1601.13 3050.24,1585.61 3036.22,1578.65C3022.21,1571.69 3010.88,1575.92 3010.94,1588.08C3010.94,1588.08 3011.79,1772.85 3012.29,1880.14C3012.47,1918.49 2988.92,1942.1 2950.61,1942C2878.71,1941.81 2780.86,1941.54 2780.86,1941.54C2768.7,1941.51 2764.5,1952.86 2771.48,1966.87C2778.46,1980.89 2793.99,1992.29 2806.14,1992.32Z" style="fill:url(#_Linear32);"/>
                        </g>
                        <g transform="matrix(0.984605,0.568462,-0.984605,0.568462,927.639,-2112.85)">
                            <path d="M2806.14,1992.32C2806.14,1992.32 2904,1992.59 2975.9,1992.78C3030.04,1992.93 3063.32,1959.55 3063.07,1905.36C3062.57,1798.06 3061.72,1613.3 3061.72,1613.3C3061.66,1601.13 3050.24,1585.61 3036.22,1578.65C3022.21,1571.69 3010.88,1575.92 3010.94,1588.08C3010.94,1588.08 3011.79,1772.85 3012.29,1880.14C3012.47,1918.49 2988.92,1942.1 2950.61,1942C2878.71,1941.81 2780.86,1941.54 2780.86,1941.54C2768.7,1941.51 2764.5,1952.86 2771.48,1966.87C2778.46,1980.89 2793.99,1992.29 2806.14,1992.32Z" style="fill:url(#_Linear33);"/>
                        </g>
                        <g transform="matrix(1.65162,0,0,1.65162,-3809.63,-1324.74)">
                            <path d="M3811.3,952.241C3811.3,938.865 3800.45,928.022 3787.08,928.022C3773.7,928.022 3762.86,938.865 3762.86,952.241C3762.86,965.617 3773.7,976.46 3787.08,976.46C3800.45,976.46 3811.3,965.617 3811.3,952.241ZM3784.28,965.065C3783.66,965.675 3782.68,965.675 3782.07,965.064L3771.91,954.908C3771.3,954.298 3771.3,953.309 3771.91,952.698L3774.12,950.489C3774.73,949.879 3775.72,949.879 3776.33,950.489L3783.17,957.331L3797.83,942.676C3798.43,942.066 3799.42,942.066 3800.03,942.676L3802.24,944.886C3802.85,945.496 3802.85,946.486 3802.24,947.096L3784.28,965.065Z" style="fill:url(#_Linear34);fill-rule:nonzero;"/>
                        </g>
                        <g transform="matrix(1.65162,0,0,1.65162,-3809.63,-1212.74)">
                            <path d="M3811.3,952.241C3811.3,938.865 3800.45,928.022 3787.08,928.022C3773.7,928.022 3762.86,938.865 3762.86,952.241C3762.86,965.617 3773.7,976.46 3787.08,976.46C3800.45,976.46 3811.3,965.617 3811.3,952.241ZM3784.28,965.065C3783.66,965.675 3782.68,965.675 3782.07,965.064L3771.91,954.908C3771.3,954.298 3771.3,953.309 3771.91,952.698L3774.12,950.489C3774.73,949.879 3775.72,949.879 3776.33,950.489L3783.17,957.331L3797.83,942.676C3798.43,942.066 3799.42,942.066 3800.03,942.676L3802.24,944.886C3802.85,945.496 3802.85,946.486 3802.24,947.096L3784.28,965.065Z" style="fill:url(#_Linear35);fill-rule:nonzero;"/>
                        </g>
                        <g transform="matrix(1.65162,0,0,1.65162,-3809.63,-1100.74)">
                            <path d="M3811.3,952.241C3811.3,938.865 3800.45,928.022 3787.08,928.022C3773.7,928.022 3762.86,938.865 3762.86,952.241C3762.86,965.617 3773.7,976.46 3787.08,976.46C3800.45,976.46 3811.3,965.617 3811.3,952.241ZM3784.28,965.065C3783.66,965.675 3782.68,965.675 3782.07,965.064L3771.91,954.908C3771.3,954.298 3771.3,953.309 3771.91,952.698L3774.12,950.489C3774.73,949.879 3775.72,949.879 3776.33,950.489L3783.17,957.331L3797.83,942.676C3798.43,942.066 3799.42,942.066 3800.03,942.676L3802.24,944.886C3802.85,945.496 3802.85,946.486 3802.24,947.096L3784.28,965.065Z" style="fill:url(#_Linear36);fill-rule:nonzero;"/>
                        </g>
                    </g>
                </g>
            </g>
        </g>
        <g transform="matrix(9.55971,0,0,9.55971,-7687.16,7641.87)">
            <path d="M1048.56,194.876L1048.56,210.184L1042.87,210.184L1042.87,172.488L1049.32,172.488C1052.48,172.488 1054.86,172.708 1056.47,173.148C1058.1,173.587 1059.53,174.417 1060.77,175.638C1062.93,177.754 1064.02,180.423 1064.02,183.646C1064.02,187.096 1062.86,189.831 1060.55,191.849C1058.24,193.867 1055.12,194.876 1051.2,194.876L1048.56,194.876ZM1048.56,189.603L1050.69,189.603C1055.91,189.603 1058.52,187.593 1058.52,183.572C1058.52,179.682 1055.83,177.737 1050.44,177.737L1048.56,177.737L1048.56,189.603Z" style="fill:url(#_Linear37);fill-rule:nonzero;"/>
            <path d="M1082.64,194.119L1094.32,210.184L1087.36,210.184L1076.59,194.754L1075.57,194.754L1075.57,210.184L1069.88,210.184L1069.88,172.488L1076.54,172.488C1081.52,172.488 1085.12,173.424 1087.33,175.296C1089.77,177.379 1091,180.13 1091,183.548C1091,186.217 1090.23,188.512 1088.7,190.433C1087.17,192.353 1085.15,193.582 1082.64,194.119ZM1075.57,189.798L1077.37,189.798C1082.76,189.798 1085.45,187.739 1085.45,183.621C1085.45,179.764 1082.83,177.835 1077.59,177.835L1075.57,177.835L1075.57,189.798Z" style="fill:url(#_Linear38);fill-rule:nonzero;"/>
            <path d="M1097.25,191.165C1097.25,185.859 1099.19,181.302 1103.08,177.493C1106.95,173.685 1111.61,171.78 1117.04,171.78C1122.41,171.78 1127.02,173.701 1130.86,177.542C1134.72,181.383 1136.65,185.998 1136.65,191.385C1136.65,196.805 1134.71,201.403 1130.84,205.179C1126.95,208.971 1122.25,210.867 1116.75,210.867C1111.88,210.867 1107.52,209.183 1103.64,205.814C1099.38,202.086 1097.25,197.204 1097.25,191.165ZM1102.98,191.238C1102.98,195.405 1104.38,198.831 1107.18,201.517C1109.96,204.202 1113.18,205.545 1116.83,205.545C1120.78,205.545 1124.12,204.178 1126.83,201.443C1129.55,198.677 1130.91,195.307 1130.91,191.336C1130.91,187.316 1129.57,183.947 1126.88,181.229C1124.21,178.494 1120.91,177.127 1116.97,177.127C1113.05,177.127 1109.74,178.494 1107.04,181.229C1104.33,183.93 1102.98,187.267 1102.98,191.238Z" style="fill:url(#_Linear39);fill-rule:nonzero;"/>
            <path d="M1150.32,204.837L1168.41,204.837L1168.41,210.184L1140.97,210.184L1159.48,177.835L1144,177.835L1144,172.488L1168.83,172.488L1150.32,204.837Z" style="fill:url(#_Linear40);fill-rule:nonzero;"/>
            <path d="M1181.57,204.837L1199.66,204.837L1199.66,210.184L1172.22,210.184L1190.73,177.835L1175.25,177.835L1175.25,172.488L1200.08,172.488L1181.57,204.837Z" style="fill:url(#_Linear41);fill-rule:nonzero;"/>
            <rect x="1206.3" y="172.488" width="5.688" height="37.695" style="fill:url(#_Linear42);fill-rule:nonzero;"/>
            <path d="M1226.74,172.488L1226.74,204.837L1237.82,204.837L1237.82,210.184L1221.05,210.184L1221.05,172.488L1226.74,172.488Z" style="fill:url(#_Linear43);fill-rule:nonzero;"/>
            <path d="M1267.46,201.028L1251.32,201.028L1247.12,210.184L1241,210.184L1259.65,170.12L1277.64,210.184L1271.41,210.184L1267.46,201.028ZM1265.14,195.682L1259.55,182.864L1253.69,195.682L1265.14,195.682Z" style="fill:url(#_Linear44);fill-rule:nonzero;"/>
        </g>
    </g>
    <defs>
        <linearGradient id="_Linear1" x1="0" y1="0" x2="1" y2="0" gradientUnits="userSpaceOnUse" gradientTransform="matrix(7.06395e-15,-115.363,517.299,3.16754e-14,1317.19,259.17)"><stop offset="0" style="stop-color:rgb(58,33,247);stop-opacity:1"/><stop offset="1" style="stop-color:rgb(208,201,253);stop-opacity:1"/></linearGradient>
        <linearGradient id="_Linear2" x1="0" y1="0" x2="1" y2="0" gradientUnits="userSpaceOnUse" gradientTransform="matrix(7.06395e-15,-115.363,517.299,3.16754e-14,1317.19,259.17)"><stop offset="0" style="stop-color:rgb(58,33,247);stop-opacity:1"/><stop offset="1" style="stop-color:rgb(208,201,253);stop-opacity:1"/></linearGradient>
        <linearGradient id="_Linear3" x1="0" y1="0" x2="1" y2="0" gradientUnits="userSpaceOnUse" gradientTransform="matrix(7.06395e-15,-115.363,517.299,3.16754e-14,1317.19,259.17)"><stop offset="0" style="stop-color:rgb(58,33,247);stop-opacity:1"/><stop offset="1" style="stop-color:rgb(208,201,253);stop-opacity:1"/></linearGradient>
        <linearGradient id="_Linear4" x1="0" y1="0" x2="1" y2="0" gradientUnits="userSpaceOnUse" gradientTransform="matrix(7.06395e-15,-115.363,517.299,3.16754e-14,1317.19,259.17)"><stop offset="0" style="stop-color:rgb(58,33,247);stop-opacity:1"/><stop offset="1" style="stop-color:rgb(208,201,253);stop-opacity:1"/></linearGradient>
        <linearGradient id="_Linear5" x1="0" y1="0" x2="1" y2="0" gradientUnits="userSpaceOnUse" gradientTransform="matrix(7.06395e-15,-115.363,517.299,3.16754e-14,1317.19,259.17)"><stop offset="0" style="stop-color:rgb(58,33,247);stop-opacity:1"/><stop offset="1" style="stop-color:rgb(208,201,253);stop-opacity:1"/></linearGradient>
        <linearGradient id="_Linear6" x1="0" y1="0" x2="1" y2="0" gradientUnits="userSpaceOnUse" gradientTransform="matrix(7.06395e-15,-115.363,517.299,3.16754e-14,1317.19,259.17)"><stop offset="0" style="stop-color:rgb(58,33,247);stop-opacity:1"/><stop offset="1" style="stop-color:rgb(208,201,253);stop-opacity:1"/></linearGradient>
        <linearGradient id="_Linear7" x1="0" y1="0" x2="1" y2="0" gradientUnits="userSpaceOnUse" gradientTransform="matrix(7.06395e-15,-115.363,517.299,3.16754e-14,1317.19,259.17)"><stop offset="0" style="stop-color:rgb(58,33,247);stop-opacity:1"/><stop offset="1" style="stop-color:rgb(208,201,253);stop-opacity:1"/></linearGradient>
        <linearGradient id="_Linear8" x1="0" y1="0" x2="1" y2="0" gradientUnits="userSpaceOnUse" gradientTransform="matrix(7.06395e-15,-115.363,517.299,3.16754e-14,1317.19,259.17)"><stop offset="0" style="stop-color:rgb(58,33,247);stop-opacity:1"/><stop offset="1" style="stop-color:rgb(208,201,253);stop-opacity:1"/></linearGradient>
        <linearGradient id="_Linear9" x1="0" y1="0" x2="1" y2="0" gradientUnits="userSpaceOnUse" gradientTransform="matrix(7.06395e-15,-115.363,517.299,3.16754e-14,1317.19,259.17)"><stop offset="0" style="stop-color:rgb(58,33,247);stop-opacity:1"/><stop offset="1" style="stop-color:rgb(208,201,253);stop-opacity:1"/></linearGradient>
        <linearGradient id="_Linear10" x1="0" y1="0" x2="1" y2="0" gradientUnits="userSpaceOnUse" gradientTransform="matrix(7.06395e-15,-115.363,517.299,3.16754e-14,1317.19,259.17)"><stop offset="0" style="stop-color:rgb(58,33,247);stop-opacity:1"/><stop offset="1" style="stop-color:rgb(208,201,253);stop-opacity:1"/></linearGradient>
        <linearGradient id="_Linear11" x1="0" y1="0" x2="1" y2="0" gradientUnits="userSpaceOnUse" gradientTransform="matrix(7.06395e-15,-115.363,517.299,3.16754e-14,1317.19,259.17)"><stop offset="0" style="stop-color:rgb(58,33,247);stop-opacity:1"/><stop offset="1" style="stop-color:rgb(208,201,253);stop-opacity:1"/></linearGradient>
        <linearGradient id="_Linear12" x1="0" y1="0" x2="1" y2="0" gradientUnits="userSpaceOnUse" gradientTransform="matrix(7.06395e-15,-115.363,517.299,3.16754e-14,1317.19,259.17)"><stop offset="0" style="stop-color:rgb(58,33,247);stop-opacity:1"/><stop offset="1" style="stop-color:rgb(208,201,253);stop-opacity:1"/></linearGradient>
        <linearGradient id="_Linear13" x1="0" y1="0" x2="1" y2="0" gradientUnits="userSpaceOnUse" gradientTransform="matrix(7.06395e-15,-115.363,517.299,3.16754e-14,1317.19,259.17)"><stop offset="0" style="stop-color:rgb(58,33,247);stop-opacity:1"/><stop offset="1" style="stop-color:rgb(208,201,253);stop-opacity:1"/></linearGradient>
        <linearGradient id="_Linear14" x1="0" y1="0" x2="1" y2="0" gradientUnits="userSpaceOnUse" gradientTransform="matrix(7.06395e-15,-115.363,517.299,3.16754e-14,1317.19,259.17)"><stop offset="0" style="stop-color:rgb(58,33,247);stop-opacity:1"/><stop offset="1" style="stop-color:rgb(208,201,253);stop-opacity:1"/></linearGradient>
        <linearGradient id="_Linear15" x1="0" y1="0" x2="1" y2="0" gradientUnits="userSpaceOnUse" gradientTransform="matrix(7.06395e-15,-115.363,517.299,3.16754e-14,1317.19,259.17)"><stop offset="0" style="stop-color:rgb(58,33,247);stop-opacity:1"/><stop offset="1" style="stop-color:rgb(208,201,253);stop-opacity:1"/></linearGradient>
        <linearGradient id="_Linear16" x1="0" y1="0" x2="1" y2="0" gradientUnits="userSpaceOnUse" gradientTransform="matrix(7.06395e-15,-115.363,517.299,3.16754e-14,1317.19,259.17)"><stop offset="0" style="stop-color:rgb(58,33,247);stop-opacity:1"/><stop offset="1" style="stop-color:rgb(208,201,253);stop-opacity:1"/></linearGradient>
        <linearGradient id="_Linear17" x1="0" y1="0" x2="1" y2="0" gradientUnits="userSpaceOnUse" gradientTransform="matrix(7.06395e-15,-115.363,517.299,3.16754e-14,1317.19,259.17)"><stop offset="0" style="stop-color:rgb(58,33,247);stop-opacity:1"/><stop offset="1" style="stop-color:rgb(208,201,253);stop-opacity:1"/></linearGradient>
        <linearGradient id="_Linear18" x1="0" y1="0" x2="1" y2="0" gradientUnits="userSpaceOnUse" gradientTransform="matrix(7.06395e-15,-115.363,517.299,3.16754e-14,1317.19,259.17)"><stop offset="0" style="stop-color:rgb(58,33,247);stop-opacity:1"/><stop offset="1" style="stop-color:rgb(208,201,253);stop-opacity:1"/></linearGradient>
        <linearGradient id="_Linear19" x1="0" y1="0" x2="1" y2="0" gradientUnits="userSpaceOnUse" gradientTransform="matrix(7.06395e-15,-115.363,517.299,3.16754e-14,1317.19,259.17)"><stop offset="0" style="stop-color:rgb(58,33,247);stop-opacity:1"/><stop offset="1" style="stop-color:rgb(208,201,253);stop-opacity:1"/></linearGradient>
        <linearGradient id="_Linear20" x1="0" y1="0" x2="1" y2="0" gradientUnits="userSpaceOnUse" gradientTransform="matrix(7.06395e-15,-115.363,517.299,3.16754e-14,1317.19,259.17)"><stop offset="0" style="stop-color:rgb(58,33,247);stop-opacity:1"/><stop offset="1" style="stop-color:rgb(208,201,253);stop-opacity:1"/></linearGradient>
        <linearGradient id="_Linear21" x1="0" y1="0" x2="1" y2="0" gradientUnits="userSpaceOnUse" gradientTransform="matrix(7.06395e-15,-115.363,517.299,3.16754e-14,1317.19,259.17)"><stop offset="0" style="stop-color:rgb(58,33,247);stop-opacity:1"/><stop offset="1" style="stop-color:rgb(208,201,253);stop-opacity:1"/></linearGradient>
        <linearGradient id="_Linear22" x1="0" y1="0" x2="1" y2="0" gradientUnits="userSpaceOnUse" gradientTransform="matrix(7.06395e-15,-115.363,517.299,3.16754e-14,1317.19,259.17)"><stop offset="0" style="stop-color:rgb(58,33,247);stop-opacity:1"/><stop offset="1" style="stop-color:rgb(208,201,253);stop-opacity:1"/></linearGradient>
        <linearGradient id="_Linear23" x1="0" y1="0" x2="1" y2="0" gradientUnits="userSpaceOnUse" gradientTransform="matrix(7.06395e-15,-115.363,517.299,3.16754e-14,1317.19,259.17)"><stop offset="0" style="stop-color:rgb(58,33,247);stop-opacity:1"/><stop offset="1" style="stop-color:rgb(208,201,253);stop-opacity:1"/></linearGradient>
        <linearGradient id="_Linear24" x1="0" y1="0" x2="1" y2="0" gradientUnits="userSpaceOnUse" gradientTransform="matrix(7.06395e-15,-115.363,517.299,3.16754e-14,1317.19,259.17)"><stop offset="0" style="stop-color:rgb(58,33,247);stop-opacity:1"/><stop offset="1" style="stop-color:rgb(208,201,253);stop-opacity:1"/></linearGradient>
        <linearGradient id="_Linear25" x1="0" y1="0" x2="1" y2="0" gradientUnits="userSpaceOnUse" gradientTransform="matrix(7.06395e-15,-115.363,517.299,3.16754e-14,1317.19,259.17)"><stop offset="0" style="stop-color:rgb(58,33,247);stop-opacity:1"/><stop offset="1" style="stop-color:rgb(208,201,253);stop-opacity:1"/></linearGradient>
        <linearGradient id="_Linear26" x1="0" y1="0" x2="1" y2="0" gradientUnits="userSpaceOnUse" gradientTransform="matrix(7.06395e-15,-115.363,517.299,3.16754e-14,1317.19,259.17)"><stop offset="0" style="stop-color:rgb(58,33,247);stop-opacity:1"/><stop offset="1" style="stop-color:rgb(208,201,253);stop-opacity:1"/></linearGradient>
        <linearGradient id="_Linear27" x1="0" y1="0" x2="1" y2="0" gradientUnits="userSpaceOnUse" gradientTransform="matrix(7.06395e-15,-115.363,517.299,3.16754e-14,1317.19,259.17)"><stop offset="0" style="stop-color:rgb(58,33,247);stop-opacity:1"/><stop offset="1" style="stop-color:rgb(208,201,253);stop-opacity:1"/></linearGradient>
        <linearGradient id="_Linear28" x1="0" y1="0" x2="1" y2="0" gradientUnits="userSpaceOnUse" gradientTransform="matrix(7.06395e-15,-115.363,517.299,3.16754e-14,1317.19,259.17)"><stop offset="0" style="stop-color:rgb(58,33,247);stop-opacity:1"/><stop offset="1" style="stop-color:rgb(208,201,253);stop-opacity:1"/></linearGradient>
        <linearGradient id="_Linear29" x1="0" y1="0" x2="1" y2="0" gradientUnits="userSpaceOnUse" gradientTransform="matrix(7.06395e-15,-115.363,517.299,3.16754e-14,1317.19,259.17)"><stop offset="0" style="stop-color:rgb(58,33,247);stop-opacity:1"/><stop offset="1" style="stop-color:rgb(208,201,253);stop-opacity:1"/></linearGradient>
        <linearGradient id="_Linear30" x1="0" y1="0" x2="1" y2="0" gradientUnits="userSpaceOnUse" gradientTransform="matrix(7.06395e-15,-115.363,517.299,3.16754e-14,1317.19,259.17)"><stop offset="0" style="stop-color:rgb(58,33,247);stop-opacity:1"/><stop offset="1" style="stop-color:rgb(208,201,253);stop-opacity:1"/></linearGradient>
        <linearGradient id="_Linear31" x1="0" y1="0" x2="1" y2="0" gradientUnits="userSpaceOnUse" gradientTransform="matrix(-1321.39,-1321.39,762.906,-762.906,4428.53,1823.01)"><stop offset="0" style="stop-color:rgb(58,33,247);stop-opacity:1"/><stop offset="1" style="stop-color:rgb(208,201,253);stop-opacity:1"/></linearGradient>
        <linearGradient id="_Linear32" x1="0" y1="0" x2="1" y2="0" gradientUnits="userSpaceOnUse" gradientTransform="matrix(-1321.39,-1321.39,762.906,-762.906,4324.35,1703.12)"><stop offset="0" style="stop-color:rgb(58,33,247);stop-opacity:1"/><stop offset="1" style="stop-color:rgb(208,201,253);stop-opacity:1"/></linearGradient>
        <linearGradient id="_Linear33" x1="0" y1="0" x2="1" y2="0" gradientUnits="userSpaceOnUse" gradientTransform="matrix(-1321.39,-1321.39,762.906,-762.906,4212.32,1591.09)"><stop offset="0" style="stop-color:rgb(58,33,247);stop-opacity:1"/><stop offset="1" style="stop-color:rgb(208,201,253);stop-opacity:1"/></linearGradient>
        <linearGradient id="_Linear34" x1="0" y1="0" x2="1" y2="0" gradientUnits="userSpaceOnUse" gradientTransform="matrix(5.56974e-14,-909.607,909.607,5.56974e-14,4430.89,1520.27)"><stop offset="0" style="stop-color:rgb(58,33,247);stop-opacity:1"/><stop offset="1" style="stop-color:rgb(208,201,253);stop-opacity:1"/></linearGradient>
        <linearGradient id="_Linear35" x1="0" y1="0" x2="1" y2="0" gradientUnits="userSpaceOnUse" gradientTransform="matrix(5.56974e-14,-909.607,909.607,5.56974e-14,4430.89,1452.46)"><stop offset="0" style="stop-color:rgb(58,33,247);stop-opacity:1"/><stop offset="1" style="stop-color:rgb(208,201,253);stop-opacity:1"/></linearGradient>
        <linearGradient id="_Linear36" x1="0" y1="0" x2="1" y2="0" gradientUnits="userSpaceOnUse" gradientTransform="matrix(5.56974e-14,-909.607,909.607,5.56974e-14,4430.89,1384.65)"><stop offset="0" style="stop-color:rgb(58,33,247);stop-opacity:1"/><stop offset="1" style="stop-color:rgb(208,201,253);stop-opacity:1"/></linearGradient>
        <linearGradient id="_Linear37" x1="0" y1="0" x2="1" y2="0" gradientUnits="userSpaceOnUse" gradientTransform="matrix(0.0838008,-117.769,122.508,0.0871732,1103.43,255.296)"><stop offset="0" style="stop-color:rgb(58,33,247);stop-opacity:1"/><stop offset="1" style="stop-color:rgb(208,201,253);stop-opacity:1"/></linearGradient>
        <linearGradient id="_Linear38" x1="0" y1="0" x2="1" y2="0" gradientUnits="userSpaceOnUse" gradientTransform="matrix(0.0838008,-117.769,122.508,0.0871732,1103.43,255.296)"><stop offset="0" style="stop-color:rgb(58,33,247);stop-opacity:1"/><stop offset="1" style="stop-color:rgb(208,201,253);stop-opacity:1"/></linearGradient>
        <linearGradient id="_Linear39" x1="0" y1="0" x2="1" y2="0" gradientUnits="userSpaceOnUse" gradientTransform="matrix(0.0838008,-117.769,122.508,0.0871732,1103.43,255.296)"><stop offset="0" style="stop-color:rgb(58,33,247);stop-opacity:1"/><stop offset="1" style="stop-color:rgb(208,201,253);stop-opacity:1"/></linearGradient>
        <linearGradient id="_Linear40" x1="0" y1="0" x2="1" y2="0" gradientUnits="userSpaceOnUse" gradientTransform="matrix(0.0838008,-117.769,122.508,0.0871732,1103.43,255.296)"><stop offset="0" style="stop-color:rgb(58,33,247);stop-opacity:1"/><stop offset="1" style="stop-color:rgb(208,201,253);stop-opacity:1"/></linearGradient>
        <linearGradient id="_Linear41" x1="0" y1="0" x2="1" y2="0" gradientUnits="userSpaceOnUse" gradientTransform="matrix(0.0838008,-117.769,122.508,0.0871732,1103.43,255.296)"><stop offset="0" style="stop-color:rgb(58,33,247);stop-opacity:1"/><stop offset="1" style="stop-color:rgb(208,201,253);stop-opacity:1"/></linearGradient>
        <linearGradient id="_Linear42" x1="0" y1="0" x2="1" y2="0" gradientUnits="userSpaceOnUse" gradientTransform="matrix(0.0838008,-117.769,122.508,0.0871732,1103.43,255.296)"><stop offset="0" style="stop-color:rgb(58,33,247);stop-opacity:1"/><stop offset="1" style="stop-color:rgb(208,201,253);stop-opacity:1"/></linearGradient>
        <linearGradient id="_Linear43" x1="0" y1="0" x2="1" y2="0" gradientUnits="userSpaceOnUse" gradientTransform="matrix(0.0838008,-117.769,122.508,0.0871732,1103.43,255.296)"><stop offset="0" style="stop-color:rgb(58,33,247);stop-opacity:1"/><stop offset="1" style="stop-color:rgb(208,201,253);stop-opacity:1"/></linearGradient>
        <linearGradient id="_Linear44" x1="0" y1="0" x2="1" y2="0" gradientUnits="userSpaceOnUse" gradientTransform="matrix(0.0838008,-117.769,122.508,0.0871732,1103.43,255.296)"><stop offset="0" style="stop-color:rgb(58,33,247);stop-opacity:1"/><stop offset="1" style="stop-color:rgb(208,201,253);stop-opacity:1"/></linearGradient>
    </defs>
</svg>
