<svg xmlns="http://www.w3.org/2000/svg"  viewBox="0 0 512 512" width="64px" height="64px"><path fill="#57a4ff" d="M400.25,289.69v-48a16,16,0,0,0-32,0v48h-104v-252a19.994,19.994,0,0,0-20-20h-44l-8,24h-64l-8-24h-44a19.994,19.994,0,0,0-20,20v304a19.994,19.994,0,0,0,20,20h92v136h288v-208Zm32,184h-200v-160h136v72l16,32,16-32v-72h32Z"/><path fill="#004fac" d="M456,280H408V240a24,24,0,0,0-48,0v40H272V36A28.031,28.031,0,0,0,244,8H76A28.031,28.031,0,0,0,48,36V340a28.031,28.031,0,0,0,28,28h84V496a8,8,0,0,0,8,8H456a8,8,0,0,0,8-8V288A8,8,0,0,0,456,280Zm-80-40a8.011,8.011,0,0,1,8-8,7.989,7.989,0,0,1,8,8V382.11l-8,16-8-16ZM360.84,387.58l16,32a8.009,8.009,0,0,0,14.32,0l16-32A8.081,8.081,0,0,0,408,384V320h16V464H240V320H360v64A8.081,8.081,0,0,0,360.84,387.58ZM188.9,24l-2.67,8H133.77l-2.67-8ZM160,288v64H76a12.01,12.01,0,0,1-12-12V36A12.01,12.01,0,0,1,76,24h38.23l6.18,18.53A8,8,0,0,0,128,48h64a8,8,0,0,0,7.59-5.47L205.77,24H244a12.01,12.01,0,0,1,12,12V280H168A8,8,0,0,0,160,288ZM448,488H176V296H360v8H232a8,8,0,0,0-8,8V472a8,8,0,0,0,8,8H432a8,8,0,0,0,8-8V312a8,8,0,0,0-8-8H408v-8h40Z"/><path fill="#004fac" d="M200,304a8,8,0,0,0-8,8v64a8,8,0,0,0,16,0V312A8,8,0,0,0,200,304Z"/><path fill="#004fac" d="M200,416a8,8,0,0,0-8,8v48a8,8,0,0,0,16,0V424A8,8,0,0,0,200,416Z"/><circle cx="200" cy="400" r="8" fill="#004fac"/></svg>