<svg xmlns="http://www.w3.org/2000/svg"  viewBox="0 0 512 512" width="64px" height="64px"><path fill="#57a4ff" d="M14,396a19.994,19.994,0,0,0,20,20H474a19.994,19.994,0,0,0,20-20V368H14Z"/><rect width="240" height="24" x="134" y="456" fill="#57a4ff"/><path fill="#57a4ff" d="M102,168v32l50.18,5.28a103.54,103.54,0,0,0,14.78,35.66l-31.75,39.23,22.62,22.62,39.23-31.75a103.54,103.54,0,0,0,35.66,14.78L238,336h32l5.28-50.18a103.54,103.54,0,0,0,35.66-14.78l39.23,31.75,22.62-22.62-31.75-39.23a103.54,103.54,0,0,0,14.78-35.66L406,200V168l-50.18-5.28a103.54,103.54,0,0,0-14.78-35.66l31.75-39.23L350.17,65.21,310.94,96.96a103.54,103.54,0,0,0-35.66-14.78L271.68,48,270,32H238l-1.68,16-3.6,34.18a103.54,103.54,0,0,0-35.66,14.78L157.83,65.21,135.21,87.83l31.75,39.23a103.54,103.54,0,0,0-14.78,35.66Zm152-56a72,72,0,1,1-72,72A72.006,72.006,0,0,1,254,112Z"/><path fill="#004fac" d="M176,184a80,80,0,1,0,80-80A80.091,80.091,0,0,0,176,184Zm80-64a64,64,0,1,1-64,64A64.072,64.072,0,0,1,256,120Z"/><path fill="#004fac" d="M476,40H280.89l-.93-8.84A8.007,8.007,0,0,0,272,24H240a8.007,8.007,0,0,0-7.96,7.16L231.11,40H36A28.031,28.031,0,0,0,8,68V396a28.031,28.031,0,0,0,28,28H188.18l-9.6,24H136a8,8,0,0,0-8,8v24a8,8,0,0,0,8,8H376a8,8,0,0,0,8-8V456a8,8,0,0,0-8-8H333.42l-9.6-24H476a28.031,28.031,0,0,0,28-28V68A28.031,28.031,0,0,0,476,40ZM236.35,90.02a8,8,0,0,0,6.32-7L247.2,40h17.6l4.53,43.02a8,8,0,0,0,6.32,7,95.149,95.149,0,0,1,32.9,13.63,7.993,7.993,0,0,0,9.42-.47L351.6,75.96,364.04,88.4l-27.22,33.63a8.009,8.009,0,0,0-.48,9.42,94.977,94.977,0,0,1,13.64,32.9,8,8,0,0,0,7,6.32L400,175.2v17.6l-43.02,4.53a8,8,0,0,0-7,6.32,95.149,95.149,0,0,1-13.63,32.9,7.993,7.993,0,0,0,.47,9.42l27.22,33.63L351.6,292.04l-33.63-27.22a8.009,8.009,0,0,0-9.42-.48,94.977,94.977,0,0,1-32.9,13.64,8,8,0,0,0-6.32,7L264.8,328H247.2l-4.53-43.02a8,8,0,0,0-6.32-7,94.977,94.977,0,0,1-32.9-13.64,8.009,8.009,0,0,0-9.42.48L160.4,292.04,147.96,279.6l27.22-33.63a7.993,7.993,0,0,0,.47-9.42,95.149,95.149,0,0,1-13.63-32.9,8,8,0,0,0-7-6.32L112,192.8V175.2l43.02-4.53a8,8,0,0,0,7-6.32,94.977,94.977,0,0,1,13.64-32.9,8.009,8.009,0,0,0-.48-9.42L147.96,88.4,160.4,75.96l33.63,27.22a7.993,7.993,0,0,0,9.42.47A95.149,95.149,0,0,1,236.35,90.02ZM368,464v8H144v-8ZM195.82,448l9.6-24H306.58l9.6,24ZM488,396a12.01,12.01,0,0,1-12,12H36a12.01,12.01,0,0,1-12-12V376H488Zm0-36H24V68A12.01,12.01,0,0,1,36,56H229.43l-2.07,19.7a110.893,110.893,0,0,0-27.67,11.47L164.87,58.99a7.989,7.989,0,0,0-10.69.56L131.55,82.18a7.989,7.989,0,0,0-.56,10.69l28.18,34.82a110.893,110.893,0,0,0-11.47,27.67l-44.54,4.68A8.007,8.007,0,0,0,96,168v32a8.007,8.007,0,0,0,7.16,7.96l44.54,4.68a110.893,110.893,0,0,0,11.47,27.67l-28.18,34.82a7.989,7.989,0,0,0,.56,10.69l22.63,22.63a7.989,7.989,0,0,0,10.69.56l34.82-28.18a110.893,110.893,0,0,0,27.67,11.47l4.68,44.54A8.007,8.007,0,0,0,240,344h32a8.007,8.007,0,0,0,7.96-7.16l4.68-44.54a110.893,110.893,0,0,0,27.67-11.47l34.82,28.18a7.989,7.989,0,0,0,10.69-.56l22.63-22.63a7.989,7.989,0,0,0,.56-10.69l-28.18-34.82a110.893,110.893,0,0,0,11.47-27.67l44.54-4.68A8.007,8.007,0,0,0,416,200V168a8.007,8.007,0,0,0-7.16-7.96l-44.54-4.68a110.893,110.893,0,0,0-11.47-27.67l28.18-34.82a7.989,7.989,0,0,0-.56-10.69L357.82,59.55a7.989,7.989,0,0,0-10.69-.56L312.31,87.17A110.893,110.893,0,0,0,284.64,75.7L282.57,56H476a12.01,12.01,0,0,1,12,12Z"/></svg>