<svg xmlns="http://www.w3.org/2000/svg"  viewBox="0 0 512 512" width="64px" height="64px"><path fill="#57a4ff" d="M476,72H440V316a19.994,19.994,0,0,1-20,20H92a19.994,19.994,0,0,1-20-20V72H36A19.994,19.994,0,0,0,16,92V368H496V92A19.994,19.994,0,0,0,476,72Z"/><polygon fill="#57a4ff" points="200 416 184 472 328 472 312 416 200 416"/><path fill="#57a4ff" d="M440,64V36a19.994,19.994,0,0,0-20-20H92A19.994,19.994,0,0,0,72,36V72H440Z"/><polygon fill="#57a4ff" points="368 232 336 120 224 120 256 232 368 232"/><path fill="#004fac" d="M476,64H448V36A28.031,28.031,0,0,0,420,8H92A28.031,28.031,0,0,0,64,36V64H36A28.031,28.031,0,0,0,8,92V396a28.031,28.031,0,0,0,28,28H189.39l-11.42,40H144a8,8,0,0,0-8,8v24a8,8,0,0,0,8,8H368a8,8,0,0,0,8-8V472a8,8,0,0,0-8-8H334.03l-11.42-40H476a28.031,28.031,0,0,0,28-28V92A28.031,28.031,0,0,0,476,64ZM80,36A12.01,12.01,0,0,1,92,24H420a12.01,12.01,0,0,1,12,12V56H80Zm0,36H432V316a12.01,12.01,0,0,1-12,12H92a12.01,12.01,0,0,1-12-12ZM360,480v8H152v-8ZM194.61,464l11.42-40h99.94l11.42,40ZM488,396a12.01,12.01,0,0,1-12,12H36a12.01,12.01,0,0,1-12-12V376H488Zm0-36H24V92A12.01,12.01,0,0,1,36,80H64V316a28.031,28.031,0,0,0,28,28H420a28.031,28.031,0,0,0,28-28V80h28a12.01,12.01,0,0,1,12,12Z"/><path fill="#004fac" d="M96,48h8a8,8,0,0,0,0-16H96a8,8,0,0,0,0,16Z"/><path fill="#004fac" d="M128,48h8a8,8,0,0,0,0-16h-8a8,8,0,0,0,0,16Z"/><path fill="#004fac" d="M160,48h8a8,8,0,0,0,0-16h-8a8,8,0,0,0,0,16Z"/><path fill="#004fac" d="M104,304h24a8,8,0,0,0,16,0H408a8,8,0,0,0,0-16H144a8,8,0,0,0-16,0H104a8,8,0,0,0,0,16Z"/><path fill="#004fac" d="M144,200a8,8,0,0,0,0,16h8a8,8,0,0,0,0-16Z"/><path fill="#004fac" d="M400,168H360a7.911,7.911,0,0,0-1.9.24L355.75,160H376a8,8,0,0,0,0-16H352a7.322,7.322,0,0,0-.81.04l-7.5-26.24A8,8,0,0,0,336,112H224a7.992,7.992,0,0,0-7.69,10.2L229.39,168H112a8,8,0,0,0,0,16H232a7.911,7.911,0,0,0,1.9-.24L238.54,200H176a8,8,0,0,0,0,16h67.11l5.2,18.2A8,8,0,0,0,256,240H368a7.992,7.992,0,0,0,7.69-10.2L362.61,184H400a8,8,0,0,0,0-16ZM262.03,224l-27.42-96h95.36l27.42,96Z"/><path fill="#004fac" d="M168,160h40a8,8,0,0,0,0-16H168a8,8,0,0,0,0,16Z"/></svg>