<svg xmlns="http://www.w3.org/2000/svg"  viewBox="0 0 512 512" width="64px" height="64px"><path fill="#57a4ff" d="M408,304a40,40,0,1,1-32-64v40Z"/><path fill="#57a4ff" d="M16,200V360H256V200Zm144,64V224a40,40,0,0,1,40,40Z"/><path fill="#57a4ff" d="M496,60V200H256V40H476A19.994,19.994,0,0,1,496,60Z"/><polygon fill="#57a4ff" points="320 448 192 448 208 400 304 400 320 448"/><path fill="#57a4ff" d="M176,288a40,40,0,1,1-40-40v40Z"/><path fill="#57a4ff" d="M408,304a40,40,0,1,1-32-64v40Z"/><line x1="376" x2="360" y1="280" y2="312" fill="none"/><g><path fill="#004fac" d="M476,408H36A28.032,28.032,0,0,1,8,380V60A28.032,28.032,0,0,1,36,32H476a28.032,28.032,0,0,1,28,28V380A28.032,28.032,0,0,1,476,408ZM36,48A12.013,12.013,0,0,0,24,60V380a12.013,12.013,0,0,0,12,12H476a12.013,12.013,0,0,0,12-12V60a12.013,12.013,0,0,0-12-12Z"/><path fill="#004fac" d="M320,456H192a8,8,0,0,1-7.59-10.53l16-48A8,8,0,0,1,208,392h96a8,8,0,0,1,7.59,5.47l16,48A8,8,0,0,1,320,456ZM203.1,440H308.9l-10.666-32H213.766Z"/><path fill="#004fac" d="M344,480H168a8,8,0,0,1-8-8V448a8,8,0,0,1,8-8H344a8,8,0,0,1,8,8v24A8,8,0,0,1,344,480ZM176,464H336v-8H176Z"/><path fill="#004fac" d="M496,368H16a8,8,0,0,1,0-16H496a8,8,0,0,1,0,16Z"/><path fill="#004fac" d="M376,480H104a8,8,0,0,1,0-16H376a8,8,0,0,1,0,16Z"/><path fill="#004fac" d="M408,480h-8a8,8,0,0,1,0-16h8a8,8,0,0,1,0,16Z"/><path fill="#004fac" d="M496,208H16a8,8,0,0,1,0-16H496a8,8,0,0,1,0,16Z"/><path fill="#004fac" d="M256,368a8,8,0,0,1-8-8V40a8,8,0,0,1,16,0V360A8,8,0,0,1,256,368Z"/><path fill="#004fac" d="M160,160H128a8,8,0,0,1,0-16h24v-8H128a8,8,0,0,1-8-8V104a8,8,0,0,1,8-8h32a8,8,0,0,1,0,16H136v8h24a8,8,0,0,1,8,8v24A8,8,0,0,1,160,160Z"/><path fill="#004fac" d="M144,112a8,8,0,0,1-8-8V96a8,8,0,0,1,16,0v8A8,8,0,0,1,144,112Z"/><path fill="#004fac" d="M144,168a8,8,0,0,1-8-8v-8a8,8,0,0,1,16,0v8A8,8,0,0,1,144,168Z"/><path fill="#004fac" d="M136,336a48,48,0,0,1,0-96,8,8,0,0,1,8,8v32h32a8,8,0,0,1,8,8A48.054,48.054,0,0,1,136,336Zm-8-78.988A32,32,0,1,0,166.987,296H136a8,8,0,0,1-8-8Z"/><path fill="#004fac" d="M200,272H160a8,8,0,0,1-8-8V224a8,8,0,0,1,8-8,48.054,48.054,0,0,1,48,48A8,8,0,0,1,200,272Zm-32-16h22.987A32.118,32.118,0,0,0,168,233.012Z"/><path fill="#004fac" d="M424,160H328a8,8,0,0,1-8-8V80a8,8,0,0,1,16,0v64h88a8,8,0,0,1,0,16Z"/><path fill="#004fac" d="M360,136a8,8,0,0,1-8-8V104a8,8,0,0,1,16,0v24A8,8,0,0,1,360,136Z"/><path fill="#004fac" d="M384,136a8,8,0,0,1-8-8V72a8,8,0,0,1,16,0v56A8,8,0,0,1,384,136Z"/><path fill="#004fac" d="M408,136a8,8,0,0,1-8-8V88a8,8,0,0,1,16,0v40A8,8,0,0,1,408,136Z"/><path fill="#004fac" d="M376,328a48,48,0,1,1,48-48A48.054,48.054,0,0,1,376,328Zm0-80a32,32,0,1,0,32,32A32.036,32.036,0,0,0,376,248Z"/><path fill="#004fac" d="M403.2,310.4l-32-24A8,8,0,0,1,368,280V240h16v36l28.8,21.6Z"/><rect width="35.777" height="16" x="350.111" y="288" fill="#004fac" transform="rotate(-63.435 368 296)"/></g></svg>