<svg xmlns="http://www.w3.org/2000/svg"  viewBox="0 0 512 512" width="64px" height="64px"><polygon fill="#57a4ff" points="279.95 384 279.95 384.01 247.95 384 279.95 384"/><polygon fill="#57a4ff" points="391.95 384 391.95 384.05 327.95 384.03 327.95 384 391.95 384"/><path fill="#57a4ff" d="M200.06,112l-.11,271.98-80-.03L120.06,112H36a19.994,19.994,0,0,0-20,20V384H247.95L232.02,200v-.01l15.44-77.02a29.882,29.882,0,0,0,33.17.01h.01L296.02,200v.01L279.95,384h48l.1-271.97V112Z"/><path fill="#57a4ff" d="M496,132V384H391.95l.02-39.95.01-48,.04-96,.02-48,.01-40.05H476A19.994,19.994,0,0,1,496,132Z"/><polygon fill="#57a4ff" points="320 472 192 472 208 432 304 432 320 472"/><polygon fill="#57a4ff" points="184.07 63.97 136.07 63.96 160.09 15.97 184.07 63.97"/><line x1="144.051" x2="143.957" y1="112.96" y2="375.96" fill="none"/><line x1="176.051" x2="175.957" y1="111.972" y2="375.972" fill="none"/><path fill="#57a4ff" d="M301.6,91.41A61.546,61.546,0,0,1,292.05,112a42.77,42.77,0,0,1-11.41,10.98h-.01a29.882,29.882,0,0,1-33.17-.01A42.541,42.541,0,0,1,236.06,112c-7.41-10.16-12-24.34-11.99-40.01C224.08,41.06,264.09,16,264.09,16c0,.09.02,31.23,27.54,49.53A23.884,23.884,0,0,1,301.6,91.41Z"/><path fill="#57a4ff" d="M280.63,122.98a29.882,29.882,0,0,1-33.17-.01v-.01Z"/><polygon fill="#57a4ff" points="279.95 384 279.95 384.01 247.95 384 279.95 384"/><polygon fill="#57a4ff" points="327.95 384 391.95 384 391.95 384.05 327.95 384.03 327.95 384"/><line x1="328.051" x2="296.051" y1="112.026" y2="112.014" fill="none"/><line x1="232.051" x2="200.051" y1="111.991" y2="111.98" fill="none"/><line x1="391.986" x2="359.986" y1="296.048" y2="296.037" fill="none"/><line x1="391.969" x2="375.969" y1="344.048" y2="344.043" fill="none"/><line x1="392.02" x2="360.02" y1="200.048" y2="200.037" fill="none"/><line x1="392.003" x2="376.003" y1="248.048" y2="248.043" fill="none"/><line x1="392.054" x2="360.054" y1="104.048" y2="104.037" fill="none"/><line x1="392.071" x2="376.071" y1="56.048" y2="56.043" fill="none"/><line x1="392.037" x2="376.037" y1="152.048" y2="152.043" fill="none"/><path fill="#004fac" d="M476,104H400V16a8,8,0,0,0-8-8H328a8,8,0,0,0-8,8v88H305.63a75.939,75.939,0,0,0,3.64-10.57,31.826,31.826,0,0,0-13.28-34.58C272.51,43.25,272.01,17.07,272,16a8,8,0,0,0-12.25-6.78C257.96,10.34,216,37.05,216,72a81.287,81.287,0,0,0,6.35,32H208V96a8.081,8.081,0,0,0-.84-3.58l-40-80a8.009,8.009,0,0,0-14.32,0l-40,80A8.081,8.081,0,0,0,112,96v8H36A28.031,28.031,0,0,0,8,132V412a28.031,28.031,0,0,0,28,28H196.18l-9.6,24H144a8,8,0,0,0-8,8v24a8,8,0,0,0,8,8H368a8,8,0,0,0,8-8V472a8,8,0,0,0-8-8H325.42l-9.6-24H476a28.031,28.031,0,0,0,28-28V132A28.031,28.031,0,0,0,476,104ZM336,24h48V48h-8a8,8,0,0,0,0,16h8V96H360a8,8,0,0,0,0,16h23.86a7.772,7.772,0,0,0,.14,1.46V144h-8a8,8,0,0,0,0,16h8v32H360a8,8,0,0,0,0,16h24v32h-8a8,8,0,0,0,0,16h8v32H360a8,8,0,0,0,0,16h24v32h-8a8,8,0,0,0,0,16h8v24H336Zm-40,96h24V376H288.73l15.24-175.31a7.8,7.8,0,0,0-.13-2.26l-14.42-72.11a52.27,52.27,0,0,0,6.39-6.33C295.87,119.99,295.94,120,296,120ZM258.06,30.37a69.65,69.65,0,0,0,29.07,41.81,15.822,15.822,0,0,1,6.67,17.17C288.97,107.68,276.99,120,264,120c-17.35,0-32-21.98-32-48C232,54.95,247.34,39.25,258.06,30.37ZM287.27,208l-14.6,168H255.33l-14.6-168Zm-45.51-16,11.52-57.58A37.536,37.536,0,0,0,264,136a36.482,36.482,0,0,0,10.71-1.62L286.24,192ZM208,120h24c.05,0,.09-.01.13-.01a52.058,52.058,0,0,0,6.43,6.43l-14.4,72.01a7.8,7.8,0,0,0-.13,2.26L239.27,376H208ZM160,33.89,171.06,56H148.94ZM140.94,72h38.12l12,24H128.94ZM192,112V376h-8V112Zm-40.07,0H168V376H152V113A8.258,8.258,0,0,0,151.93,112ZM128,112h8.07a8.258,8.258,0,0,0-.07,1V376h-8ZM24,132a12.01,12.01,0,0,1,12-12h76V376H24ZM360,480v8H152v-8ZM203.82,464l9.6-24h85.16l9.6,24ZM488,412a12.01,12.01,0,0,1-12,12H36a12.01,12.01,0,0,1-12-12V392H488Zm0-36H400V120h76a12.01,12.01,0,0,1,12,12Z"/></svg>