<svg xmlns="http://www.w3.org/2000/svg"  viewBox="0 0 512 512" width="64px" height="64px"><polygon fill="#57a4ff" points="158 48 238 48 246 16 150 16 158 48"/><rect width="64" height="24" x="166" y="448" fill="#57a4ff"/><path fill="#57a4ff" d="M206.96,312.94l-31.75,39.23,22.62,22.62,39.23-31.75a103.54,103.54,0,0,0,35.66,14.78L278,408h32l5.28-50.18a103.3,103.3,0,0,0,35.66-14.78l39.23,31.75,22.62-22.62-31.75-39.23a103.54,103.54,0,0,0,14.78-35.66L446,272V240l-50.18-5.28a103.54,103.54,0,0,0-14.78-35.66l31.75-39.23-22.62-22.62-39.23,31.75a103.3,103.3,0,0,0-35.66-14.78L310,104H278l-5.28,50.18a103.54,103.54,0,0,0-35.66,14.78l-39.23-31.75-22.62,22.62,31.75,39.23a103.54,103.54,0,0,0-14.78,35.66L142,240v32l50.18,5.28A103.54,103.54,0,0,0,206.96,312.94ZM294,184a72,72,0,1,1-72,72A71.656,71.656,0,0,1,294,184Z"/><path fill="#004fac" d="M232,440H168a8,8,0,0,0-8,8v24a8,8,0,0,0,8,8h64a8,8,0,0,0,8-8V448A8,8,0,0,0,232,440Zm-8,24H176v-8h48Z"/><path fill="#004fac" d="M296,176a80,80,0,1,0,80,80A80.091,80.091,0,0,0,296,176Zm-64,80a63.951,63.951,0,0,1,96-55.39V311.39A63.951,63.951,0,0,1,232,256Zm112,42.264V213.736a63.82,63.82,0,0,1,0,84.528Z"/><path fill="#004fac" d="M448.84,232.04l-44.54-4.68a110.893,110.893,0,0,0-11.47-27.67l28.18-34.82a7.989,7.989,0,0,0-.56-10.69l-22.63-22.63a7.989,7.989,0,0,0-10.69-.56l-34.82,28.18c-2.71-1.58-5.49-3.03-8.31-4.37V36A28.031,28.031,0,0,0,316,8H84A28.031,28.031,0,0,0,56,36V476a28.031,28.031,0,0,0,28,28H316a28.031,28.031,0,0,0,28-28V357.2c2.82-1.34,5.6-2.79,8.31-4.37l34.82,28.18a7.989,7.989,0,0,0,10.69-.56l22.63-22.63a7.989,7.989,0,0,0,.56-10.69l-28.18-34.82a110.893,110.893,0,0,0,11.47-27.67l44.54-4.68A8.007,8.007,0,0,0,456,272V240A8.007,8.007,0,0,0,448.84,232.04ZM237.75,24l-4,16h-67.5l-4-16ZM328,476a12.01,12.01,0,0,1-12,12H84a12.01,12.01,0,0,1-12-12V36A12.01,12.01,0,0,1,84,24h61.75l6.49,25.94A8,8,0,0,0,160,56h80a8,8,0,0,0,7.76-6.06L254.25,24H316a12.01,12.01,0,0,1,12,12V148.65c-1.11-.34-2.23-.65-3.36-.95l-4.68-44.54A8.007,8.007,0,0,0,312,96H280a8.007,8.007,0,0,0-7.96,7.16l-4.68,44.54a110.893,110.893,0,0,0-27.67,11.47l-34.82-28.18a7.989,7.989,0,0,0-10.69.56l-22.63,22.63a7.989,7.989,0,0,0-.56,10.69l28.18,34.82a110.893,110.893,0,0,0-11.47,27.67l-44.54,4.68A8.007,8.007,0,0,0,136,240v32a8.007,8.007,0,0,0,7.16,7.96l44.54,4.68a110.893,110.893,0,0,0,11.47,27.67l-28.18,34.82a7.989,7.989,0,0,0,.56,10.69l22.63,22.63a7.989,7.989,0,0,0,10.69.56l34.82-28.18a110.893,110.893,0,0,0,27.67,11.47l4.68,44.54A8.007,8.007,0,0,0,280,416h32a8.007,8.007,0,0,0,7.96-7.16l4.68-44.54c1.13-.3,2.25-.61,3.36-.95ZM440,264.8l-43.02,4.53a8,8,0,0,0-7,6.32,95.149,95.149,0,0,1-13.63,32.9,7.993,7.993,0,0,0,.47,9.42l27.22,33.63L391.6,364.04l-33.63-27.22a8.009,8.009,0,0,0-9.42-.48,94.977,94.977,0,0,1-32.9,13.64,8,8,0,0,0-6.32,7L304.8,400H287.2l-4.53-43.02a8,8,0,0,0-6.32-7,94.977,94.977,0,0,1-32.9-13.64,8.009,8.009,0,0,0-9.42.48L200.4,364.04,187.96,351.6l27.22-33.63a7.993,7.993,0,0,0,.47-9.42,95.149,95.149,0,0,1-13.63-32.9,8,8,0,0,0-7-6.32L152,264.8V247.2l43.02-4.53a8,8,0,0,0,7-6.32,94.977,94.977,0,0,1,13.64-32.9,8.009,8.009,0,0,0-.48-9.42L187.96,160.4l12.44-12.44,33.63,27.22a7.993,7.993,0,0,0,9.42.47,95.149,95.149,0,0,1,32.9-13.63,8,8,0,0,0,6.32-7L287.2,112h17.6l4.53,43.02a8,8,0,0,0,6.32,7,95.149,95.149,0,0,1,32.9,13.63,7.993,7.993,0,0,0,9.42-.47l33.63-27.22,12.44,12.44-27.22,33.63a8.009,8.009,0,0,0-.48,9.42,94.977,94.977,0,0,1,13.64,32.9,8,8,0,0,0,7,6.32L440,247.2Z"/></svg>