<svg xmlns="http://www.w3.org/2000/svg"  viewBox="0 0 512 512" width="64px" height="64px"><path fill="#57a4ff" d="M26.32,120a56.02,56.02,0,0,0,104.29,8h253.1A56.02,56.02,0,0,0,488,120H442.32l-16-16,16-16H488a56.02,56.02,0,0,0-104.29-8H130.61A56.02,56.02,0,0,0,26.32,88H72l16,16L72,120Z"/><path fill="#57a4ff" d="M471.76,421.61,432,408q-16,16-32,0l-39.76,13.61A40,40,0,0,0,336,458.38v-16a40,40,0,0,0-24.24-36.77L272,392q-16.005,16-32,0l-39.76,13.61A40,40,0,0,0,176,442.38v16a40,40,0,0,0-24.24-36.77L112,408q-16,16-32,0L40.24,421.61A40,40,0,0,0,16,458.38V480H496V458.38A40,40,0,0,0,471.76,421.61Z"/><g><path fill="#004fac" d="M474.91,414.26c-.18-.08-.37-.15-.56-.22L440,402.28v-18.3A39.967,39.967,0,0,0,456,352V320a40,40,0,0,0-80,0v32a39.967,39.967,0,0,0,16,31.98v18.3l-34.35,11.76c-.19.07-.38.14-.56.22a47.954,47.954,0,0,0-16.13,11.3,47.879,47.879,0,0,0-26.05-27.3c-.18-.08-.37-.15-.56-.22L280,386.28v-18.3A39.967,39.967,0,0,0,296,336V304a40,40,0,0,0-80,0v32a39.967,39.967,0,0,0,16,31.98v18.3l-34.35,11.76c-.19.07-.38.14-.56.22a47.879,47.879,0,0,0-26.05,27.3,47.954,47.954,0,0,0-16.13-11.3c-.18-.08-.37-.15-.56-.22L120,402.28v-18.3A39.967,39.967,0,0,0,136,352V320a40,40,0,0,0-80,0v32a39.967,39.967,0,0,0,16,31.98v18.3L37.65,414.04c-.19.07-.38.14-.56.22A47.943,47.943,0,0,0,8,458.38V480a8,8,0,0,0,8,8H496a8,8,0,0,0,8-8V458.38A47.943,47.943,0,0,0,474.91,414.26ZM72,320a24,24,0,0,1,48,0v32a24,24,0,0,1-48,0Zm32,71.2v13.26c-2.86,2.34-5.55,3.54-8,3.54s-5.14-1.2-8-3.54V391.2a40.4,40.4,0,0,0,16,0ZM168,472H152v-8a8,8,0,0,0-16,0v8H56v-8a8,8,0,0,0-16,0v8H24V458.38a31.951,31.951,0,0,1,19.13-29.3l35.03-12c11.53,9.2,24.15,9.2,35.68,0l35.03,12A31.951,31.951,0,0,1,168,458.38Zm64-168a24,24,0,0,1,48,0v32a24,24,0,0,1-48,0Zm32,71.2v13.26c-2.86,2.34-5.55,3.54-8,3.54s-5.14-1.2-8-3.54V375.2a40.4,40.4,0,0,0,16,0ZM328,472H312V448a8,8,0,0,0-16,0v24H216V448a8,8,0,0,0-16,0v24H184V442.38a31.951,31.951,0,0,1,19.13-29.3l35.03-11.99c5.72,4.59,11.71,6.91,17.84,6.91s12.12-2.32,17.84-6.91l35.03,11.99A31.951,31.951,0,0,1,328,442.38Zm64-152a24,24,0,0,1,48,0v32a24,24,0,0,1-48,0Zm32,71.2v13.26c-2.86,2.34-5.55,3.54-8,3.54s-5.14-1.2-8-3.54V391.2a40.4,40.4,0,0,0,16,0ZM488,472H472v-8a8,8,0,0,0-16,0v8H376v-8a8,8,0,0,0-16,0v8H344V458.38a31.951,31.951,0,0,1,19.13-29.3l35.03-12c11.53,9.2,24.15,9.2,35.68,0l35.03,12A31.951,31.951,0,0,1,488,458.38Z"/><path fill="#004fac" d="M26.32,112a8,8,0,0,0-7.668,10.281A64.016,64.016,0,0,0,135.433,136H378.887a64.016,64.016,0,0,0,116.781-13.719A8,8,0,0,0,488,112H445.634l-8-8,8-8H488a8,8,0,0,0,7.668-10.281A64.016,64.016,0,0,0,378.887,72H135.433A64.016,64.016,0,0,0,18.652,85.719,8,8,0,0,0,26.32,96H68.687l8,8-8,8Zm51.337,13.657,16-16a8,8,0,0,0,0-11.314l-16-16A8,8,0,0,0,72,80H38.435a48.008,48.008,0,0,1,84.949,3.433A8,8,0,0,0,130.61,88h253.1a8,8,0,0,0,7.226-4.566A48.008,48.008,0,0,1,475.886,80H442.32a8,8,0,0,0-5.656,2.343l-16,16a8,8,0,0,0,0,11.314l16,16A8,8,0,0,0,442.32,128h33.566a48.008,48.008,0,0,1-84.95-3.434A8,8,0,0,0,383.71,120H130.61a8,8,0,0,0-7.226,4.567A48.008,48.008,0,0,1,38.435,128H72A8,8,0,0,0,77.657,125.657Z"/></g></svg>