<?xml version="1.0" encoding="utf-8"?>
<!-- Generator: Adobe Illustrator 27.9.0, SVG Export Plug-In . SVG Version: 6.00 Build 0)  -->
<svg version="1.1" id="Layer_1" xmlns="http://www.w3.org/2000/svg" xmlns:xlink="http://www.w3.org/1999/xlink" x="0px" y="0px"
	 viewBox="0 0 841.5 161.2" style="enable-background:new 0 0 841.5 161.2;" xml:space="preserve">
<style type="text/css">
	.st0{fill:#FFFFFF;}
	.st1{fill-rule:evenodd;clip-rule:evenodd;fill:#FFFFFF;}
</style>
<g>
	<g>
		<g>
			<path class="st0" d="M280.5,140.9v8h-3v-19.7h3.4c1.6,0,2.9,0.1,3.7,0.3c0.9,0.2,1.6,0.7,2.2,1.3c1.1,1.1,1.7,2.5,1.7,4.2
				c0,1.8-0.6,3.2-1.8,4.3c-1.2,1-2.8,1.6-4.9,1.6L280.5,140.9L280.5,140.9z M280.5,138.1h1.1c2.7,0,4.1-1,4.1-3.1s-1.4-3-4.2-3h-1
				L280.5,138.1L280.5,138.1z"/>
			<path class="st0" d="M298.3,140.5l6.1,8.4h-3.6l-5.6-8h-0.5v8h-3v-19.7h3.5c2.6,0,4.5,0.5,5.6,1.5c1.3,1.1,1.9,2.5,1.9,4.3
				c0,1.4-0.4,2.6-1.2,3.6C300.7,139.6,299.7,140.2,298.3,140.5L298.3,140.5z M294.6,138.2h0.9c2.8,0,4.2-1.1,4.2-3.2
				c0-2-1.4-3-4.1-3h-1L294.6,138.2L294.6,138.2z"/>
			<path class="st0" d="M305.9,139c0-2.8,1-5.1,3-7.1c2-2,4.5-3,7.3-3s5.2,1,7.2,3c2,2,3,4.4,3,7.2s-1,5.2-3,7.2c-2,2-4.5,3-7.4,3
				c-2.5,0-4.8-0.9-6.8-2.6C307.1,144.6,305.9,142.1,305.9,139L305.9,139z M308.9,139c0,2.2,0.7,4,2.2,5.4c1.5,1.4,3.1,2.1,5,2.1
				c2.1,0,3.8-0.7,5.2-2.1c1.4-1.4,2.1-3.2,2.1-5.3s-0.7-3.9-2.1-5.3c-1.4-1.4-3.1-2.1-5.2-2.1s-3.8,0.7-5.2,2.1
				C309.7,135.2,308.9,136.9,308.9,139L308.9,139z"/>
			<path class="st0" d="M336.2,129.2v12.7c0,1.5-0.1,2.6-0.3,3.4c-0.2,0.9-0.6,1.6-1.1,2.1c-1,1.2-2.3,1.8-4,1.8
				c-1.2,0-2.4-0.3-3.5-1l1.5-2.5c0.7,0.5,1.4,0.7,2,0.7c0.9,0,1.5-0.3,1.8-1c0.4-0.7,0.5-1.8,0.5-3.5v-12.7L336.2,129.2
				L336.2,129.2z"/>
			<path class="st0" d="M351.8,132h-7.9v4.7h7.7v2.8h-7.7v6.6h7.9v2.8h-10.9v-19.7h10.9V132L351.8,132z"/>
			<path class="st0" d="M370.2,130.3v3.5c-1.7-1.4-3.5-2.1-5.3-2.1c-2,0-3.7,0.7-5.1,2.2c-1.4,1.4-2.1,3.2-2.1,5.3s0.7,3.8,2.1,5.2
				c1.4,1.4,3.1,2.1,5.1,2.1c1,0,1.9-0.2,2.7-0.5c0.4-0.2,0.8-0.4,1.3-0.7s0.9-0.6,1.4-1v3.6c-1.7,1-3.5,1.4-5.4,1.4
				c-2.8,0-5.2-1-7.2-2.9c-2-2-3-4.4-3-7.2c0-2.5,0.8-4.7,2.5-6.7c2-2.4,4.7-3.6,7.9-3.6C366.9,128.8,368.6,129.3,370.2,130.3
				L370.2,130.3z"/>
			<path class="st0" d="M379.4,132v16.9h-3V132h-4.5v-2.8h12v2.8H379.4z"/>
			<path class="st0" d="M406.2,144.1h-8.4l-2.2,4.8h-3.2l9.7-20.9l9.4,20.9h-3.2L406.2,144.1z M405,141.3l-2.9-6.7l-3.1,6.7H405z"/>
			<path class="st0" d="M414,148.9v-21l14.4,15v-13.7h3v20.9l-14.4-15v13.8L414,148.9L414,148.9z"/>
			<path class="st0" d="M436,148.9v-19.7h4.1c2,0,3.5,0.2,4.7,0.6c1.2,0.4,2.4,1,3.4,2c2,1.9,3,4.3,3,7.3s-1.1,5.5-3.2,7.3
				c-1.1,0.9-2.2,1.6-3.3,2c-1.1,0.4-2.6,0.5-4.6,0.5L436,148.9L436,148.9z M439,146.1h1.3c1.3,0,2.4-0.1,3.3-0.4
				c0.9-0.3,1.7-0.8,2.4-1.4c1.5-1.3,2.2-3.1,2.2-5.2s-0.7-3.9-2.2-5.2c-1.3-1.2-3.2-1.8-5.8-1.8h-1.3L439,146.1L439,146.1z"/>
			<path class="st0" d="M468.4,132v16.9h-3V132h-4.5v-2.8h12v2.8H468.4z"/>
			<path class="st0" d="M486.1,144.1h-8.4l-2.2,4.8h-3.2L482,128l9.4,20.9h-3.2L486.1,144.1L486.1,144.1z M484.9,141.3l-2.9-6.7
				l-3.1,6.7H484.9z"/>
			<path class="st0" d="M505,132.1l-2.4,1.4c-0.5-0.8-0.9-1.3-1.3-1.5c-0.4-0.3-1-0.4-1.6-0.4c-0.8,0-1.5,0.2-2,0.7
				c-0.5,0.5-0.8,1-0.8,1.7c0,1,0.7,1.7,2.1,2.3l2,0.8c1.6,0.6,2.8,1.4,3.5,2.4s1.1,2.1,1.1,3.4c0,1.8-0.6,3.3-1.8,4.5
				c-1.2,1.2-2.7,1.8-4.5,1.8c-1.7,0-3.1-0.5-4.2-1.5c-1.1-1-1.8-2.4-2.1-4.3l3-0.7c0.1,1.1,0.4,2,0.7,2.4c0.6,0.9,1.5,1.3,2.7,1.3
				c0.9,0,1.7-0.3,2.3-0.9s0.9-1.4,0.9-2.4c0-0.4-0.1-0.7-0.2-1s-0.3-0.6-0.5-0.9c-0.2-0.3-0.5-0.5-0.9-0.8
				c-0.4-0.2-0.8-0.5-1.3-0.7l-1.9-0.8c-2.7-1.1-4-2.8-4-5c0-1.5,0.6-2.7,1.7-3.7c1.1-1,2.5-1.5,4.2-1.5
				C501.9,128.8,503.7,129.9,505,132.1L505,132.1z"/>
			<path class="st0" d="M512,137.1l7.7-7.9h4l-8.9,8.9l9,10.8h-4l-7.1-8.8l-0.6,0.6v8.1h-3v-19.7h3V137.1L512,137.1z"/>
			<path class="st0" d="M533.7,148.9l4.1-21.1l6.8,15.3l7-15.3l3.7,21.1h-3l-1.9-11.9l-5.8,12.8l-5.7-12.8l-2.1,11.9H533.7z"/>
			<path class="st0" d="M571,144.1h-8.4l-2.2,4.8h-3.2L567,128l9.4,20.9h-3.2L571,144.1L571,144.1z M569.8,141.3l-2.9-6.7l-3.1,6.7
				H569.8z"/>
			<path class="st0" d="M578.8,148.9v-21l14.3,15v-13.7h3v20.9l-14.3-15v13.8L578.8,148.9L578.8,148.9z"/>
			<path class="st0" d="M612.6,144.1h-8.4l-2.2,4.8h-3.2l9.7-20.9l9.4,20.9h-3.2L612.6,144.1L612.6,144.1z M611.3,141.3l-2.9-6.7
				l-3.1,6.7H611.3z"/>
			<path class="st0" d="M629.6,138.6h8.1v0.6c0,1.5-0.2,2.8-0.5,3.9c-0.3,1-0.9,2-1.7,3c-1.8,2.1-4.2,3.1-7,3.1s-5.1-1-7.1-3
				c-2-2-2.9-4.4-2.9-7.2s1-5.3,3-7.3c2-2,4.4-3,7.3-3c1.5,0,3,0.3,4.3,0.9c1.3,0.6,2.5,1.6,3.8,3.1l-2.1,2
				c-1.6-2.1-3.6-3.2-5.9-3.2c-2.1,0-3.8,0.7-5.2,2.1c-1.4,1.4-2.1,3.2-2.1,5.3s0.8,4,2.3,5.4c1.5,1.3,3.1,2,4.8,2
				c1.5,0,2.8-0.5,3.9-1.5c1.2-1,1.8-2.2,2-3.6h-4.9L629.6,138.6L629.6,138.6z"/>
			<path class="st0" d="M652.3,132h-7.9v4.7h7.7v2.8h-7.7v6.6h7.9v2.8h-10.9v-19.7h10.9V132L652.3,132z"/>
			<path class="st0" d="M655.5,148.9l4.1-21.1l6.8,15.3l7-15.3l3.7,21.1h-3l-1.9-11.9l-5.8,12.8l-5.7-12.8l-2.1,11.9H655.5
				L655.5,148.9z"/>
			<path class="st0" d="M692.1,132h-7.9v4.7h7.7v2.8h-7.7v6.6h7.9v2.8h-10.9v-19.7h10.9V132L692.1,132z"/>
			<path class="st0" d="M696,148.9v-21l14.3,15v-13.7h3v20.9l-14.3-15v13.8L696,148.9L696,148.9z"/>
			<path class="st0" d="M723.5,132v16.9h-3V132H716v-2.8h12v2.8H723.5z"/>
			<path class="st0" d="M749.8,132.1l-2.4,1.4c-0.5-0.8-0.9-1.3-1.3-1.5c-0.4-0.3-1-0.4-1.6-0.4c-0.8,0-1.5,0.2-2,0.7
				c-0.5,0.5-0.8,1-0.8,1.7c0,1,0.7,1.7,2.1,2.3l2,0.8c1.6,0.6,2.8,1.4,3.5,2.4s1.1,2.1,1.1,3.4c0,1.8-0.6,3.3-1.8,4.5
				c-1.2,1.2-2.7,1.8-4.5,1.8c-1.7,0-3.1-0.5-4.2-1.5c-1.1-1-1.8-2.4-2-4.3l3-0.7c0.1,1.1,0.4,2,0.7,2.4c0.6,0.9,1.5,1.3,2.7,1.3
				c0.9,0,1.7-0.3,2.3-0.9s0.9-1.4,0.9-2.4c0-0.4,0-0.7-0.2-1c-0.1-0.3-0.3-0.6-0.5-0.9c-0.2-0.3-0.5-0.5-0.9-0.8
				c-0.4-0.2-0.8-0.5-1.3-0.7l-1.9-0.8c-2.7-1.1-4-2.8-4-5c0-1.5,0.6-2.7,1.7-3.7c1.1-1,2.5-1.5,4.2-1.5
				C746.8,128.8,748.6,129.9,749.8,132.1L749.8,132.1z"/>
			<path class="st0" d="M757.7,140.4l-6.4-11.2h3.4l4.5,7.9l4.5-7.9h3.4l-6.5,11.2v8.5h-3L757.7,140.4L757.7,140.4z"/>
			<path class="st0" d="M779.9,132.1l-2.4,1.4c-0.5-0.8-0.9-1.3-1.3-1.5c-0.4-0.3-1-0.4-1.6-0.4c-0.8,0-1.5,0.2-2,0.7
				c-0.5,0.5-0.8,1-0.8,1.7c0,1,0.7,1.7,2.1,2.3l2,0.8c1.6,0.6,2.8,1.4,3.5,2.4s1.1,2.1,1.1,3.4c0,1.8-0.6,3.3-1.8,4.5
				c-1.2,1.2-2.7,1.8-4.5,1.8c-1.7,0-3.1-0.5-4.2-1.5c-1.1-1-1.8-2.4-2-4.3l3-0.7c0.1,1.1,0.4,2,0.7,2.4c0.6,0.9,1.5,1.3,2.7,1.3
				c0.9,0,1.7-0.3,2.3-0.9c0.6-0.6,0.9-1.4,0.9-2.4c0-0.4,0-0.7-0.2-1c-0.1-0.3-0.3-0.6-0.5-0.9c-0.2-0.3-0.5-0.5-0.9-0.8
				c-0.3-0.2-0.8-0.5-1.3-0.7l-1.9-0.8c-2.7-1.1-4-2.8-4-5c0-1.5,0.6-2.7,1.7-3.7s2.5-1.5,4.2-1.5
				C776.9,128.8,778.7,129.9,779.9,132.1L779.9,132.1z"/>
			<path class="st0" d="M789.8,132v16.9h-3V132h-4.5v-2.8h12v2.8H789.8z"/>
			<path class="st0" d="M807.8,132h-7.9v4.7h7.7v2.8h-7.7v6.6h7.9v2.8H797v-19.7h10.9V132L807.8,132z"/>
			<path class="st0" d="M811,148.9l4.1-21.1l6.8,15.3l7-15.3l3.7,21.1h-3l-1.9-11.9l-5.8,12.8l-5.7-12.8l-2.1,11.9H811z"/>
		</g>
		<g>
			<path class="st1" d="M81.1,81.6c0,0,18.5,10.8,32.1,18.6c10.1,5.9,22.6,5.9,32.8,0.1l48.2-27.7c5.9-3.4,9.5-9.6,9.5-16.4
				s-3.6-13.1-9.5-16.5l-47.8-27.6c-10.1-5.9-22.6-5.9-32.7,0C82.7,30,11.2,71.3,11.2,71.3c-2.3,1.3-3.1,4.3-1.8,6.5
				c1.3,2.3,4.3,3.1,6.6,1.8l102.4-59.1c7.2-4.1,16-4.1,23.2,0c13.1,7.5,32.7,18.9,47.8,27.6c2.9,1.7,4.7,4.8,4.7,8.1
				s-1.8,6.5-4.7,8.1c-15.1,8.7-35,20.1-48.2,27.7c-7.2,4.1-16,4.1-23.2-0.1C104.4,84,85.9,73.3,85.9,73.3c-2.3-1.3-5.2-0.5-6.6,1.7
				C78,77.3,78.8,80.3,81.1,81.6L81.1,81.6z"/>
			<path class="st1" d="M79.5,106c0,0,18.4,10.7,32,18.5c10.2,5.9,22.8,5.9,33,0c20.2-11.8,54.9-32,54.9-32c2.3-1.3,3.1-4.3,1.7-6.6
				s-4.3-3.1-6.6-1.7c0,0-34.7,20.2-54.9,32c-7.2,4.2-16.1,4.2-23.3,0c-13.5-7.9-32-18.5-32-18.5c-2.3-1.3-5.2-0.5-6.6,1.7
				C76.5,101.7,77.3,104.7,79.5,106L79.5,106z"/>
			<path class="st1" d="M79.5,130.4c0,0,18.4,10.7,32,18.5c10.2,5.9,22.8,5.9,33,0c20.2-11.8,54.9-32,54.9-32
				c2.3-1.3,3.1-4.3,1.7-6.6s-4.3-3.1-6.6-1.7c0,0-34.7,20.2-54.9,32c-7.2,4.2-16.1,4.2-23.3,0c-13.5-7.9-32-18.5-32-18.5
				c-2.3-1.3-5.2-0.5-6.6,1.7C76.5,126.2,77.3,129.1,79.5,130.4L79.5,130.4z"/>
			<path class="st0" d="M224.5,60.1c0-4.2-3.4-7.7-7.7-7.7s-7.7,3.4-7.7,7.7s3.4,7.7,7.7,7.7S224.5,64.3,224.5,60.1z M216,64.2
				c-0.2,0.2-0.5,0.2-0.7,0l-3.2-3.2c-0.2-0.2-0.2-0.5,0-0.7l0.7-0.7c0.2-0.2,0.5-0.2,0.7,0l2.2,2.2l4.6-4.6c0.2-0.2,0.5-0.2,0.7,0
				l0.7,0.7c0.2,0.2,0.2,0.5,0,0.7L216,64.2L216,64.2z"/>
			<path class="st0" d="M224.5,81.6c0-4.2-3.4-7.7-7.7-7.7s-7.7,3.4-7.7,7.7s3.4,7.7,7.7,7.7S224.5,85.8,224.5,81.6z M216,85.6
				c-0.2,0.2-0.5,0.2-0.7,0l-3.2-3.2c-0.2-0.2-0.2-0.5,0-0.7l0.7-0.7c0.2-0.2,0.5-0.2,0.7,0l2.2,2.2l4.6-4.6c0.2-0.2,0.5-0.2,0.7,0
				l0.7,0.7c0.2,0.2,0.2,0.5,0,0.7L216,85.6L216,85.6z"/>
			<path class="st0" d="M224.5,103c0-4.2-3.4-7.7-7.7-7.7s-7.7,3.4-7.7,7.7s3.4,7.7,7.7,7.7S224.5,107.3,224.5,103z M216,107.1
				c-0.2,0.2-0.5,0.2-0.7,0l-3.2-3.2c-0.2-0.2-0.2-0.5,0-0.7l0.7-0.7c0.2-0.2,0.5-0.2,0.7,0l2.2,2.2l4.6-4.6c0.2-0.2,0.5-0.2,0.7,0
				l0.7,0.7c0.2,0.2,0.2,0.5,0,0.7L216,107.1L216,107.1z"/>
		</g>
	</g>
	<g>
		<path class="st0" d="M290.8,69v36.2h-13.5V16h15.2c7.5,0,13.1,0.5,16.9,1.6c3.9,1,7.2,3,10.2,5.9c5.1,5,7.7,11.3,7.7,18.9
			c0,8.2-2.7,14.6-8.2,19.4c-5.5,4.8-12.8,7.2-22.1,7.2L290.8,69L290.8,69z M290.8,56.5h5c12.3,0,18.5-4.8,18.5-14.3
			s-6.4-13.8-19.1-13.8h-4.4L290.8,56.5L290.8,56.5z"/>
		<path class="st0" d="M371.4,67.2l27.6,38h-16.5l-25.5-36.5h-2.4v36.5h-13.5V16H357c11.8,0,20.3,2.2,25.5,6.6
			c5.8,4.9,8.7,11.4,8.7,19.5c0,6.3-1.8,11.7-5.4,16.3S377.3,65.9,371.4,67.2L371.4,67.2z M354.7,57h4.3c12.7,0,19.1-4.9,19.1-14.6
			c0-9.1-6.2-13.7-18.6-13.7h-4.8L354.7,57L354.7,57z"/>
		<path class="st0" d="M405.9,60.2c0-12.5,4.6-23.3,13.8-32.3c9.1-9,20.2-13.5,33-13.5s23.6,4.5,32.7,13.6
			c9.1,9.1,13.7,20,13.7,32.7s-4.6,23.7-13.7,32.6c-9.2,9-20.3,13.5-33.3,13.5c-11.5,0-21.8-4-31-12C411,86,405.9,74.5,405.9,60.2
			L405.9,60.2z M419.5,60.4c0,9.9,3.3,18,9.9,24.3c6.6,6.4,14.2,9.5,22.8,9.5c9.3,0,17.2-3.2,23.6-9.7c6.4-6.5,9.6-14.5,9.6-23.9
			s-3.2-17.5-9.5-23.9c-6.3-6.5-14.1-9.7-23.4-9.7s-17.1,3.2-23.5,9.7C422.7,43.1,419.5,51,419.5,60.4L419.5,60.4z"/>
		<path class="st0" d="M531.4,92.5h42.8v12.6h-64.9l43.8-76.5h-36.6V16.1h58.7L531.4,92.5L531.4,92.5z"/>
		<path class="st0" d="M605.3,92.5h42.8v12.6h-64.9l43.8-76.5h-36.6V16.1h58.7L605.3,92.5L605.3,92.5z"/>
		<rect x="663.8" y="16.1" class="st0" width="13.5" height="89.1"/>
		<path class="st0" d="M712.1,16.1v76.5h26.2v12.6h-39.7V16L712.1,16.1L712.1,16.1z"/>
		<path class="st0" d="M808.4,83.5h-38.2l-9.9,21.6h-14.5l44.1-94.7l42.5,94.7h-14.7L808.4,83.5z M802.9,70.9l-13.2-30.3l-13.9,30.3
			H802.9L802.9,70.9z"/>
	</g>
</g>
</svg>
