<svg xmlns="http://www.w3.org/2000/svg" viewBox="0 0 800 600" width="800" height="600"><g transform="translate(391.0 225.0) rotate(0.0 96.5 65.5) scale(1.6782608695652175 1.670151461063797)"><svg width="115" height="78.436" viewBox="0 0 115 78.436"><path d="M70.564 73.908a4.528 4.528 0 0 0 4.528 4.528h.179-36.297.934a4.528 4.528 0 0 0 4.528-4.528V30.615h26.128z" fill="#dddee3"/><path d="M0 0h115v61H0z" fill="#f3f4f6"/><path d="M1.333 1.333h112.333V52H1.333z" fill="#e8e9ec"/></svg></g><g transform="translate(299.0 356.0) rotate(0.0 176.5 77.0) translate(0.0 0.0) scale(0.8465349621337477 0.8417508417508418)"><svg width="318.947" height="182.952" viewBox="0 0 318.947 182.952"><g fill="#f3f4f6"><path d="M.158 0h416.837v17.368H.158z"/><path d="M357.134 12.406h22.331v19.849h-22.331z"/><path d="M408.128 182.952 368.299 34.499 328.47 182.952l-7.726-2.073L368.299 3.626l47.555 177.253zM36.39 12.406h22.331v19.849H36.39z"/><path d="M87.384 182.952 47.556 34.499 7.727 182.952 0 180.879 47.556 3.626l47.555 177.253z"/></g></svg></g><g transform="translate(92.0 508.0) rotate(0.0 120.5 8.0) scale(0.842262716070093 0.8417065600505024)"><svg width="286.134" height="19.009" viewBox="0 0 286.134 19.009"><path d="M286.134 0c0 10.498-8.97 19.009-20.036 19.009H20.036C8.97 19.009 0 10.498 0 0z" fill="#eff0f2"/></svg></g><g transform="translate(153.0 297.0) rotate(0.0 69.5 102.0) scale(1.0 1.0)"><svg width="139" height="204" viewBox="0 0 139 204"><path d="M136.498 204.001a2.502 2.502 0 0 1-2.408-1.834l-24-86.656a2.501 2.501 0 0 1 4.819-1.334l24 86.656a2.499 2.499 0 0 1-2.411 3.168z" fill="#80b6f4"/><path d="M47.5 110.156h68v4.688h-68z" fill="#016EEA"/><path d="M23.501 204.001a2.5 2.5 0 0 1-2.411-3.168l23.774-85.843L.179 3.43A2.5 2.5 0 1 1 4.82 1.571l45.314 113.127-24.226 87.47a2.5 2.5 0 0 1-2.407 1.833z" fill="#80b6f4"/></svg></g><g transform="translate(339.0 242.0) rotate(0.0 -70.5 133.0) scale(-1.0503106237802242 1.0483750187209824)"><svg width="134.246" height="253.726" viewBox="0 0 134.246 253.726"><path d="m34.895 207.256 7.908 29.99 20.142-2.089-4.924-25.513zm45.542-74.778 47.73-14.232-8.49-23.793a72.58 72.58 0 0 0-16.043-25.915L81.61 46.468c-1.369-1.424-7.373-1.805-9.243-1.169l-8.2 2.909-4.349 1.48c-16.586 7.549-25.685 25.919-12.785 43.385z" fill="#016eea"/><path d="m27.576 84.459 12.03-34.179 3.757-8.273c14.546-7.237 32.154-3.588 42.623 8.835l12.738 15.115-51.185 21.8z" fill="#016eea"/><path d="M48.688 17.076 28.746 23.2l12.12 39.472c.294.959 1.6 1.08 2.068.194L55.46 39.131z" fill="#c78982"/><path d="m125.103 115.191-87.18 13.607c-6.253.976-10.153 7.31-8.208 13.332 2.505 7.757 5.425 16.59 5.721 16.574l86.167-.45a6.054 6.054 0 0 0 4.254-1.777c11.475-11.497 11.133-30.215-.754-41.286z" fill="#013b84"/><path d="m45.059 129.458-5.469-.433c-5.88-.391-11.741 1.482-15.624 5.183-3.115 2.969-4.63 7.248-4.358 11.542l.341 5.382c.042.656.15 1.305.323 1.94 4.945 18.107 19.753 72.434 19.753 72.434l20.605-4.04-.521-4.554-1.31-46.413a18.713 18.713 0 0 0-.297-3.061l-2.33-12.897z" fill="#013b84"/><path d="m43.003 87.965 9.264-6.268c1.392-1.277 3.614-.091 3.329 1.776l-2.584 16.89z" fill="#002652" opacity=".07"/><path d="M47.802 17.041 23.296 9.858A13.715 13.715 0 0 1 37.785.065l6.586.64c4.149.403 6.906 4.483 5.734 8.482z" fill="#002652"/><path d="m38.231 8.118-1.625 5.542-4.94-1.448-5.435 18.542-1.853-.543-4.952-16.516 7.163-9.305z" fill="#002652"/><path d="m26.232 12.363-6.347 21.193c-.673 2.529 1.314 4.98 3.927 4.844l24.235-1.257z" fill="#c78982"/><path d="m24.538 26.862-4.154-1.327c-1.731-.553-1.975-2.902-.393-3.798l6.916-3.921zM42.539 2.776l.487.129a3.858 3.858 0 0 1 2.736 4.719l-3.444 12.945-17.261-4.593.965-3.626C27.939 5.146 35.334.859 42.539 2.776z" fill="#c78982"/><path d="m32.84 30.135-10.82-2.88 3.66-13.754L36.5 16.38z" fill="#c78982"/><path d="m47.886 1.452 5.086 1.491c5.557 1.629 8.742 7.455 7.113 13.012l-7.374 25.157-32.345-9.481 5.283-18.023c2.783-9.497 12.739-14.94 22.237-12.156z" fill="#c78982"/><path d="m25.114 16.285 2.461.722c.286.084.527.278.669.539l.724 1.325c.48.879-.341 1.899-1.301 1.617l-2.979-.873" fill="#002652" opacity=".07"/><path d="m35.569.504-3.343 11.403a4.184 4.184 0 0 0 2.837 5.191l4.047 1.186a4.042 4.042 0 0 1 2.742 5.016l-2.787 9.508a3.64 3.64 0 0 0 5.239 4.218l17.667-9.657a2.022 2.022 0 0 0 .804-2.743l-6.757-15.75A13.35 13.35 0 0 0 44.2.796z" fill="#002652"/><path d="m49.13 1.786 8.492 2.519c5.922 1.736 9.315 7.943 7.579 13.865l-5.416 18.476a3.001 3.001 0 0 1-3.004 2.154l-14.445-.603a3 3 0 0 1-2.754-3.841z" fill="#002652"/><path d="m47.329 19.735-.333-.098a4.81 4.81 0 0 0-5.968 3.262l-2.607 8.893 4.355-1.174a6.143 6.143 0 0 0 4.005-3.414l1.968-4.382a2.253 2.253 0 0 0-1.42-3.087z" fill="#c78982"/><path d="M20.691 107.427a.448.448 0 0 0 .63.065l37.17-30.246c5.291-4.305 6.089-12.084 1.785-17.374l-1.173-1.442a7.706 7.706 0 0 0-10.839-1.114l-41.12 33.46z" fill="#016eea"/><path d="m110.294 117.67 16.621-2.863 4.452 9.002z" fill="#013b84"/><path d="m24.563 28.77-.638.687c-.35.376-.839.593-1.352.598l-1.765.018.632-2.233z" fill="#002652" opacity=".07"/><g fill="#c78982"><path d="m5.191 47.567-3.34 34.328 4.736-.583 11.814-1.563-2.156-27.038c.001 0-11.039-5.755-11.054-5.144zm20.191-8.677c-.891-.59-1.954-.717-2.504.022l-5.242 7.875 3.14 4.128 5.015-10.226a1.334 1.334 0 0 0-.409-1.799z"/><path d="M22.113 38.623c-.891-.59-2.651-.964-3.201-.225l-5.068 7.785 3.14 4.128 5.291-10.771c.123-.232.121-.769-.15-.911l-.012-.006z"/><path d="M18.723 37.481c-.891-.59-2.689-.89-3.24-.151l-5.029 7.711 3.14 4.128 5.291-10.771c.123-.232.121-.769-.15-.911a.067.067 0 0 0-.012-.006z"/><path d="M15.405 36.773c-.775-.584-1.815-1.059-2.393-.343l-6.199 7.75 2.767 3.943 5.894-10.454c.135-.225.182-.749-.057-.89a.027.027 0 0 1-.012-.006z"/><path d="m12.17 43.216 7.253 3.56a2.92 2.92 0 0 1 1.02 4.414l-5.317 6.848a1.213 1.213 0 0 1-1.487.348l-4.215-2.044c-3.881-1.882-5.517-6.596-3.636-10.478l.253-.522a4.601 4.601 0 0 1 6.129-2.126z"/><ellipse cx="14.949" cy="47.575" rx="6.682" ry="7.306" transform="matrix(-.8998 -.4362 .4362 -.8998 7.6481 96.9067)"/><path d="M25.511 51.123a7.83 7.83 0 0 0-1.235 1.823 6.703 6.703 0 0 1-2.352 2.649l-2.836 1.73c-1.615.981-2.823 1.725-5.406 1.154l-4.579.298-3.457-5.169a1.482 1.482 0 0 1 .623-2.174l.697-.314a7.138 7.138 0 0 0 5.746-2.528l.033-.046.039-.048 11.784-5.31-2.348 3.936-.432 1.546a.474.474 0 0 0 .193.512c.14.09.322.101.469.034.038-.017.596-.267.632-.29.735-1.233 3.82.634 2.429 2.197z"/></g><path d="M2.69 73.489.18 93.354c-.36 3.705-.334 5.02 1.574 8.216l2.01 3.367a7.88 7.88 0 0 0 7.162 3.829l7.568-.384c3.622-.184 6.145-3.671 5.186-7.169L19.351 85.43l-1.429-11.882z" fill="#016eea"/><path d="m24.891 50.264-1.298-3.424a2.271 2.271 0 0 1 1.053-2.808l.222-.119a.649.649 0 0 1 .878.266l1.763 3.297a1.223 1.223 0 0 1-.502 1.655z" fill="#c78982"/><path d="m27.322 49.344-4.376 5.404a2.051 2.051 0 0 1-3.016.188l-1.041-1 6.643-8.139 1.555 1.269c.692.565.797 1.584.235 2.278z" fill="#c78982"/><path d="m19.915 250.773-4.399-2.62c-1.213-.723-2.057-1.958-2.244-3.284-.274-1.949.927-3.602 2.818-3.878l8.342-1.216c5.272-.769 9.621-3.836 11.919-8.407l2.751-5.472 3.66 2.059c.882.496 1.337 1.523 1.057 2.387l-.801 2.472 5.018 1.97c3.399 1.334 7.004.72 9.286-1.583l3.524-3.555c.617-.623 1.795-.156 1.976.784l3.079 15.996-.434 3.765z" fill="#93c3ff"/><path d="m67.283 247.478-.523 1.583c-.942 2.848-3.552 4.665-6.7 4.665H26.587a4.15 4.15 0 0 1-1.905-.481l-7.997-4.17h27.561c.488 0 .93-.191 1.232-.531 1.516-1.71 3.736-2.668 6.188-2.668h14.375c.825 0 1.489.857 1.242 1.602z" fill="#d4e7ff"/></svg></g><g transform="translate(694.0 316.0) rotate(0.0 -69.5 102.0) translate(-0.0 9.0) scale(-1.0 1.0)"><svg width="139" height="195" viewBox="0 9 139 195"><path d="M136.498 204.001a2.502 2.502 0 0 1-2.408-1.834l-24-86.656a2.501 2.501 0 0 1 4.819-1.334l24 86.656a2.499 2.499 0 0 1-2.411 3.168z" fill="#80b6f4"/><path d="M47.5 110.156h68v4.688h-68z" fill="#016EEA"/><path d="M23.501 204.001a2.5 2.5 0 0 1-2.411-3.168l23.774-85.843L.179 3.43A2.5 2.5 0 1 1 4.82 1.571l45.314 113.127-24.226 87.47a2.5 2.5 0 0 1-2.407 1.833z" fill="#80b6f4"/></svg></g><g transform="translate(469.0 508.0) rotate(0.0 79.5 8.0) scale(0.8544390527011559 0.8417065600505024)"><svg width="186.087" height="19.009" viewBox="0 0 186.087 19.009"><path d="M186.087 0c0 10.498-8.971 19.009-20.036 19.009H20.036C8.971 19.009 0 10.498 0 0z" fill="#eff0f2"/></svg></g><g transform="translate(99.0 169.0) rotate(0.0 74.0 179.5) scale(0.9991696090411348 0.998403666560986)"><svg width="148.123" height="359.574" viewBox="0 0 148.123 359.574"><path d="m127.862 173.9-8.923-.344-9.393-51.35 15.447-4.928 3.083 19.317z" fill="#99644c"/><path d="m110.463 70.135 14.581 45.986.592 6.431-13.023 6.506L92.59 70.273z" fill="#013b84"/><path d="M96.235 135.43h51.888v49.699H96.235z" fill="#2888ff"/><path d="m114.148 127.422 5.386 21.06a7.177 7.177 0 0 1 .027 3.405l-18.611 80.017s-18.434 1.565-18.407 1.053l-1.115.048 4.221-57.795 1.914-46.705z" fill="#99644c"/><path d="m101.572 221.408-2.046 38.039a18.29 18.29 0 0 1-.481 3.296l-16.341 68.212s-15.715-.042-15.175-.013l3.925-71.398c.114-2.07.583-4.125 1.387-6.074l11.133-26.981z" fill="#99644c"/><path d="M71.454 259.546c.114-2.07.583-4.125 1.387-6.074l8.689-21.058 4.119-57.204 1.914-46.705 26.585-1.083 5.386 21.06a7.177 7.177 0 0 1 .027 3.405l-18.536 79.697-1.499 27.863a18.29 18.29 0 0 1-.481 3.296l-16.341 68.212s-14.7-.039-15.175-.015z" fill="#1d2445" opacity=".1"/><path d="m58.426 132.336 2.401-8.601-46.019-24.643-9.415 13.201 17.449 8.841z" fill="#99644c"/><path d="M114.902 130.941H62.973l-24.582-58.98h52.947z" fill="#013b84"/><path d="M119.068 97.473 26.271 74.54l12.936-19.946a11.236 11.236 0 0 1 11.664-4.897l50.403 10.242a11.236 11.236 0 0 1 8.37 7.306z" fill="#013b84"/><path d="M36.582 62.75 2.177 97.22c-3.915 4.922-2.371 12.193 3.206 15.099l3.183 1.659 43.605-42.485z" fill="#013b84"/><path d="m64.579 224.439-16.876 34.379a18.032 18.032 0 0 0-1.665 5.402l-9.581 67.12s13.254 2.874 12.74 2.703l24.314-64.718a19.937 19.937 0 0 0 1.074-4.189l4.257-29.627z" fill="#99644c"/><path d="m101.083 138.305 7.038 22.737-31.705 85.325s-14.615-8.511-14.615-9.023l12.757-97.956z" fill="#99644c"/><path d="M85.812 331.514h-4.781l1.557-8.805a3.41 3.41 0 0 1 3.358-2.816h1.921z" fill="#2888ff"/><path d="M67.736 329.062h16.335v5.94H67.736z" fill="#99644c"/><path d="M87.025 345.134H64.237l-.021-2.296a26.103 26.103 0 0 1 1.585-9.201l2.094-5.729 19.131 7.027z" fill="#93c3ff"/><path d="M67.457 326.376v8.757c.52 0 14.168 7.462 14.536 7.83l2.172 2.172h26.871l-.866-2.49a3.922 3.922 0 0 0-2.783-2.524l-14.076-3.403a11.742 11.742 0 0 1-6.664-4.407l-3.236-4.352a3.924 3.924 0 0 0-3.148-1.582z" fill="#93c3ff"/><path d="M64.215 344.766h46.633v3.503H64.215z" fill="#2888ff"/><circle cx="73.101" cy="337.529" fill="#2888ff" r="4.184"/><path d="M63.832 134.087h52.323l3.166 13.848a20 20 0 0 1 .019 8.831l-13.847 61.781h-41.66l-.571-66.199z" fill="#016eea"/><path d="m98.893 73.379 11.851 8.573a7.492 7.492 0 0 1 2.854 7.973l-3.823 14.547a7.5 7.5 0 0 0-.011 3.767l6.632 25.829-54.17 21.756.122-27.943-5.403-58.62z" fill="#013b84"/><path d="M42.943 356.41a7.198 7.198 0 0 1-6.475 3.146l-9.218-.657c-2.966-.312-4.665-3.536-3.246-6.16l12.314-22.761 14.139 5.713-1.189 11.346z" fill="#2888ff"/><path d="M42.943 353.53a7.198 7.198 0 0 1-6.475 3.146l-9.218-.657c-2.966-.312-4.665-3.536-3.246-6.16l12.314-22.761 14.475 5.243-1.189 11.346z" fill="#93c3ff"/><path d="m37.294 331.083 10.25 3.56 3.559-10.247a3.552 3.552 0 0 0-2.19-4.521l-3.539-1.229a3.552 3.552 0 0 0-4.521 2.19z" fill="#2888ff"/><path d="m40.526 335.974-6.615-2.41 3.897-10.698 2.44.889a3.6 3.6 0 0 1 2.261 4.252z" fill="#93c3ff"/><path d="m48.809 338.991-8.892-3.239 3.945-7.388a3.6 3.6 0 0 1 4.408-1.687l4.436 1.616z" fill="#93c3ff"/><path d="m46.228 122.905 8.139 6.674a5.435 5.435 0 0 1 2.35 4.28l.062 1.7-.09 7.41a3.446 3.446 0 0 0 .859 2.338l1.621 1.858-.115 3.961a6.117 6.117 0 0 0 .494 2.636l3.301 7.717a.457.457 0 0 0 .599.244l.01-.004.021-.011a1.813 1.813 0 0 0 .929-2.08l-1.988-7.434 1.351-8.878.703-1.595a.513.513 0 0 1 .519-.299.53.53 0 0 1 .461.416c.294 1.358 1.146 5.721 1.282 6.454a1.337 1.337 0 0 0 1.596 1.079 1.39 1.39 0 0 0 1.122-1.268s-.062-3.592-.146-5.873a8.442 8.442 0 0 1 .223-2.391 7.266 7.266 0 0 0-.148-3.853l-1.191-3.422c-.679-1.947-1.257-3.921-3.828-5.226l-4.783-4.114z" fill="#99644c"/><g fill="#93c3ff"><path d="m80.772 69.534-28.509-19.52 43.331 8.795-13.267 10.665a1.306 1.306 0 0 1-1.555.06z"/><path d="M77.573 67.054h1v29.81h-1zm6.973-.667h1v31.308h-1z"/><path d="M77.363 99.122h1.42c.44 0 .725-.463.529-.856l-.71-1.42a.591.591 0 0 0-1.058 0l-.71 1.42a.591.591 0 0 0 .529.856zm6.887 0h1.42c.44 0 .725-.463.529-.856l-.71-1.42a.591.591 0 0 0-1.058 0l-.71 1.42a.592.592 0 0 0 .529.856z"/></g><circle cx="56.595" cy="19.766" fill="#002652" r="14.656"/><path d="M82.682 68.673V35.478H64.805V52.66l15.938 16.787c.7.736 1.939.241 1.939-.774zm-2.863-53.915h9.893v12.575h-9.893z" fill="#99644c"/><path d="M68.166 5.72h12.325v25.151H68.166z" fill="#002652"/><path d="m64.064 36.668 7.575 3.366V7.964a3.408 3.408 0 0 0-3.408-3.408h-1.533c-7.303 0-12.892 6.504-11.792 13.724l1.216 7.984a13.633 13.633 0 0 0 7.942 10.404z" fill="#002652"/><path d="M93.322 15.556v5.999c0 .218-.042.434-.123.636l-.795 1.977a1.703 1.703 0 0 0 .442 1.903l.477.429v11.601a3.407 3.407 0 0 1-3.422 3.408l-18.447-.088.088-15.795z" fill="#99644c"/><path d="m90.329 33.412 4.711-2.446a1.704 1.704 0 0 0 .337-2.795l-5.048-4.414z" fill="#99644c"/><path d="M92.287 24.985h-3.506c-.911 0-1.367-1.101-.723-1.745l.971-.971c.192-.192.452-.299.723-.299h3.505l-.984 2.352zm-2.001 8.174.389.76c.213.416.588.727 1.036.858l1.541.453v-2.111z" fill="#1d2445" opacity=".1"/><path d="M75.086 22.095h15.108l.341-2.499H75.086z" fill="#93c3ff"/><path d="M71.179 28.736h9.183v-9.132h-9.183a3.673 3.673 0 0 0-3.673 3.673v1.787a3.672 3.672 0 0 0 3.673 3.672zM81.698 4.357h-.445a3.408 3.408 0 0 0-3.408 3.408V19.6h15.781v-3.315c0-6.588-5.34-11.928-11.928-11.928z" fill="#99644c"/><path d="m90.712 20.596-.022.022.022 4.972 3.326-.022-.022-4.972zm0-1h3.304c.565 0 1.022.458 1.022 1.022v4.95c0 .565-.458 1.022-1.022 1.022h-3.304a1.022 1.022 0 0 1-1.022-1.022v-4.95a1.021 1.021 0 0 1 1.022-1.022z" fill="#93c3ff"/><path d="M74.624 14.774c0-5.358-6.98-9.701-15.591-9.701-7.345 0-13.504 3.161-15.156 7.416-.428 1.102.421 2.285 1.603 2.285z" fill="#002652"/><path d="M92.222 10.687C92.222 4.785 84.532 0 75.046 0c-8.093 0-14.878 3.482-16.697 8.17-.471 1.214.464 2.517 1.766 2.517z" fill="#002652"/><path d="m82.542 41.43-4.053.016c-.956.004-1.471 1.123-.852 1.851l5.018 5.906" fill="#1d2445" opacity=".1"/><circle cx="43.174" cy="27.027" fill="#002652" r="14.656"/><path d="M60.679 35.026a.5.5 0 0 0 .5-.5V5.393a.5.5 0 0 0-1 0v29.133a.5.5 0 0 0 .5.5zm-4.419.305a.5.5 0 0 0 .442-.733L44.449 11.353a.5.5 0 0 0-.885.466l12.253 23.245c.09.169.264.267.443.267z" fill="#016eea"/><path d="M88.198 6.912H76.617v11.174c-1.619.129-3.168.226-3.396.15-.348-.116 3.311 3.935 5.603 6.447.629.69 1.774.241 1.774-.693v-3.323c0-.565.458-1.022 1.022-1.022h4.637a6 6 0 0 0 6-6v-2.674a4.059 4.059 0 0 0-4.059-4.059z" fill="#002652"/><path d="m136.629 186.127-3.827-9.636a.737.737 0 0 0-.912-.512c-.008.001-.016.001-.023.008-1.075.456-1.762 1.731-1.552 3.158l1.111 5.38-3.137-7.755a.737.737 0 0 0-.912-.512c-.008.001-.017.001-.023.007-1.075.456-1.762 1.731-1.551 3.158l.373 2.122-2.566-3.748a.694.694 0 0 0-.928-.373c-.956.541-1.463 1.806-1.114 3.116l.564.904-1.981-3.011a.641.641 0 0 0-.824-.381c-.007.002-.014.003-.019.008-.897.469-1.403 1.619-1.123 2.838l1.525 4.976a.972.972 0 0 0 .666.647l1.148.323a1.623 1.623 0 0 0 2.002-1.123l.045-.161.728 2.082c.118.337.398.592.745.677l1.256.308a1.753 1.753 0 0 0 1.656-.464c.084.062.174.115.274.152l1.29.477a1.871 1.871 0 0 0 2.405-1.106l.14-.377c.102.333.347.606.678.728l1.289.477a1.87 1.87 0 0 0 2.405-1.106l.187-.505c.096-.251.096-.526.005-.776z" fill="#99644c"/></svg></g><g transform="translate(556.0 -27.0) rotate(0.0 65.0 71.0) translate(0.0 21.0) scale(0.9966191611533184 0.9949481856208967)"><svg width="130.441" height="120.609" viewBox="0 21.107 130.441 120.609"><path d="M64.83 86.867h3.19a7.745 7.745 0 0 1 7.745 7.745 6.715 6.715 0 0 0 4.481 6.333l32.362 11.422a26.895 26.895 0 0 1 17.833 22.927H64.83z" fill="#d2d3da"/><path d="M65.611 86.867h-3.19a7.745 7.745 0 0 0-7.745 7.745 6.715 6.715 0 0 1-4.481 6.333l-32.362 11.422A26.897 26.897 0 0 0 0 135.295h65.611z" fill="#d2d3da"/><ellipse cx="65.221" cy="135.829" fill="#f3f4f6" rx="65.221" ry="6.892"/><path d="M64.221 0h2v87.868h-2z" fill="#d2d3da"/></svg></g><g transform="translate(339.0 -27.0) rotate(0.0 65.0 71.0) translate(0.0 24.0) scale(0.9966191611533184 0.9949481856208967)"><svg width="130.441" height="118.599" viewBox="0 24.122 130.441 118.599"><path d="M64.83 86.867h3.19a7.745 7.745 0 0 1 7.745 7.745 6.715 6.715 0 0 0 4.481 6.333l32.362 11.422a26.895 26.895 0 0 1 17.833 22.927H64.83z" fill="#d2d3da"/><path d="M65.611 86.867h-3.19a7.745 7.745 0 0 0-7.745 7.745 6.715 6.715 0 0 1-4.481 6.333l-32.362 11.422A26.897 26.897 0 0 0 0 135.295h65.611z" fill="#d2d3da"/><ellipse cx="65.221" cy="135.829" fill="#f3f4f6" rx="65.221" ry="6.892"/><path d="M64.221 0h2v87.868h-2z" fill="#d2d3da"/></svg></g><g transform="translate(117.0 -27.0) rotate(0.0 65.0 71.0) translate(0.0 28.0) scale(0.9966191611533184 0.9949481856208967)"><svg width="130.441" height="113.574" viewBox="0 28.142 130.441 113.574"><path d="M64.83 86.867h3.19a7.745 7.745 0 0 1 7.745 7.745 6.715 6.715 0 0 0 4.481 6.333l32.362 11.422a26.895 26.895 0 0 1 17.833 22.927H64.83z" fill="#d2d3da"/><path d="M65.611 86.867h-3.19a7.745 7.745 0 0 0-7.745 7.745 6.715 6.715 0 0 1-4.481 6.333l-32.362 11.422A26.897 26.897 0 0 0 0 135.295h65.611z" fill="#d2d3da"/><ellipse cx="65.221" cy="135.829" fill="#f3f4f6" rx="65.221" ry="6.892"/><path d="M64.221 0h2v87.868h-2z" fill="#d2d3da"/></svg></g><g transform="translate(410.0 242.0) rotate(0.0 26.0 27.0) scale(0.762798885140091 0.7695596408721675)"><svg width="68.17" height="70.17" viewBox="0 0 68.17 70.17"><path d="M12.623 60.987c5.788 5.678 13.716 9.183 22.466 9.183 17.637 0 31.947-14.237 32.075-31.852H35.292zM33.186.002 33.089 0C24.268 0 16.281 3.56 10.48 9.318l22.705 22.705V.002z" fill="#76b3ff"/><path d="M36.186 3.002v32.02l-.016.295h31.994c.001-.079.006-.158.006-.237 0-17.683-14.312-32.025-31.984-32.078z" fill="#2888ff"/><path d="M32.186 36.023 9.481 13.318C3.626 19.13 0 27.181 0 36.081c0 8.974 3.686 17.083 9.623 22.906l22.743-22.743z" fill="#FFF"/></svg></g><g transform="translate(476.0 226.0) rotate(0.0 44.5 39.0) scale(0.42788461538461536 0.4262295081967213)"><svg width="208" height="183" viewBox="0 0 208 183"><g fill="#e8e9ec"><path d="M9.5 183h-1v-79h1zm0-91h-1V82h1zm0-22h-1V0h1zm47 108h-1v-12h1zm0-22h-1v-12h1zm0-42h-1V64h1zm0-62h-1V42h1zm0-22h-1V0h1zm46-30h1v183h-1zm48 183h-1v-79h1zm0-91h-1V82h1zm0-22h-1V0h1zm47 113h-1v-30h1zm0-42h-1v-10h1zm0-22h-1V69h1zm0-80h-1V27h1zm0-22h-1V5h1z"/><path d="M138 28.5h-30v-1h30zm-42 0H86v-1h10zm-22 0H24v-1h50zm-74 46h208v1H0zm208 48h-70v-1h70zm-82 0h-10v-1h10zm-22 0H24v-1h80zm74 47h-12v-1h12zm-22 0h-12v-1h12zm-42 0H64v-1h50zm-62 0H42v-1h10zm-22 0H0v-1h30z"/></g><path d="m7.929 127.771-1.858-3.542 63.252-33.182 2.983 11.931 9.155-26.55 14.786 23.234 12.84-14.816 23.265 30.05 27.599-76.665 12.228 32.237 18.16-6.356 1.322 3.776-21.84 7.644-9.772-25.763-26.401 73.335-24.735-31.95-13.16 15.184-13.214-20.766-10.845 31.45-5.017-20.069z" fill="#2888ff"/></svg></g><g transform="translate(443.0 248.0) rotate(0.0 141.0 134.0) scale(0.9994152357663069 0.999164877117633)"><svg width="282.165" height="268.224" viewBox="0 0 282.165 268.224"><path d="M98.011 126.08h57.333v47.333H98.011z" fill="#b0d3ff"/><path d="m92.411 35.324 1.793-.206c1.053-.121 1.546 1.265.653 1.836l-2.501 1.599-2.005 1.281c-.837.438-1.777.303-2.29-.266 0 0-.009.004-.013-.005a.497.497 0 0 1 .111-.682zm-3.715-3.945-3.305 3.603L84.457 36a.485.485 0 0 0-.031.693c.009-.004.009-.004.013.005.581.498 1.532.499 2.304-.043l4.417-3.713c.758-.637.228-1.871-.757-1.759z" fill="#ed956e"/><path d="m91.044 32.433-1.029 1.132-4.169 4.528a.483.483 0 0 0-.022.689l.013.005c.581.498 1.535.508 2.304-.043l5.687-4.78c.759-.638.227-1.872-.757-1.759l-1.675.192z" fill="#ed956e"/><path d="m92.411 35.324 1.793-.206c1.053-.121 1.546 1.265.653 1.836l-2.501 1.599-2.005 1.281c-.837.438-1.777.303-2.29-.266 0 0-.009.004-.013-.005a.497.497 0 0 1 .111-.682zm-3.715-3.945-3.305 3.603L84.457 36a.485.485 0 0 0-.031.693c.009-.004.009-.004.013.005.581.498 1.532.499 2.304-.043l5.924-4.98c.308-.259.093-.761-.308-.715z" fill="#1d2445" opacity=".1"/><path d="m91.044 32.433-1.029 1.132-4.169 4.528a.483.483 0 0 0-.022.689l.013.005c.581.498 1.535.508 2.304-.043l5.687-4.78c.759-.638.227-1.872-.757-1.759l-1.675.192z" fill="#1d2445" opacity=".1"/><path d="m100.324 36.656-5.757-4.213a10.798 10.798 0 0 1-1.704-1.557l-1.039-1.176-3.635.53 3.407 9.829a1.468 1.468 0 0 1-1.558 2.017l-6.464-.92a1.313 1.313 0 0 0-1.584 1.102.681.681 0 0 0 .461.717l13.355 5.165.003-.015a9.412 9.412 0 0 0 7.866-.361l.361-.195 6.227-1.432 4.664-2.324-10.315-3.23c-2.306-.371-2.865-2.896-4.288-3.937z" fill="#ed956e"/><path d="M84.27 17.962c-.65.436-.923 1.374-.598 2.281l6.023 13.337 4.824.105-9.565-15.515a.5.5 0 0 0-.673-.214zm38.583 45.329L99.415 48.689l2.917-9.628 26.498 10.531z" fill="#ed956e"/><path d="m142.498 58.508-1.176 9.785a6.826 6.826 0 0 0 6.004 7.597l49.797 5.681.779-25.713z" fill="#016eea"/><path d="m154.175 62.553-14.957-9.902a37.457 37.457 0 0 0-8.816-4.296l-28.206-9.412-6.206 12.93 25.08 16.271a37.442 37.442 0 0 0 13.114 5.32l11.332 2.241a5.052 5.052 0 0 0 5.828-3.532zm91.659 11.768-18.478 33.011a42.34 42.34 0 0 0-5.082 15.55l-.601 4.923a42.324 42.324 0 0 1-5.969 17.06l-6.011 9.768-38.669-31.204h-30.542l20.361-32.578-2.036-21.04 23.755-5.43z" fill="#016eea"/><path d="m72.388 262.902.287-.825a4.316 4.316 0 0 1 3.063-2.778l15.496-3.746a12.923 12.923 0 0 0 7.335-4.851l3.562-4.791a4.318 4.318 0 0 1 3.465-1.741h14.097v3.004l1.822 4.984a28.76 28.76 0 0 1 1.746 10.131l-.023 2.527h-21.936l-.001.001H73.75a1.441 1.441 0 0 1-1.362-1.915z" fill="#93c3ff"/><path d="M72.579 264.417h50.683v3.807H72.579z" fill="#2888ff"/><path d="m2.274 190.78.634-.601a4.316 4.316 0 0 1 3.997-1.062l15.486 3.786c2.935.718 6.029.384 8.743-.942l5.364-2.621a4.319 4.319 0 0 1 3.878.044l12.524 6.472-1.379 2.669-.67 5.265a28.73 28.73 0 0 1-3.101 9.802l-1.181 2.235-19.487-10.071h-.001L2.604 193.107a1.442 1.442 0 0 1-.33-2.327z" fill="#93c3ff"/><path d="M45.024 218.86-.003 195.592l1.748-3.383 45.026 23.269z" fill="#2888ff"/><path d="M231.852 47.099 189.274 57.16a15 15 0 0 0-9.202 6.54l-10.06 15.793h86.49l-6.87-22.225c-2.33-7.539-10.101-11.984-17.78-10.169z" fill="#016eea"/><path d="m280.04 92.129-.23.353a9.437 9.437 0 0 1-13.106 2.726l-39.64-26.159 15.907-20.217 35.779 32.979a8.054 8.054 0 0 1 1.29 10.318z" fill="#016eea"/><path d="m61.752 218.449-25.791-29.863 46.653-72.696c3.274-5.101 10.374-5.98 14.793-1.831l10.351 9.72-7.792 38.865z" fill="#bedbff"/><path d="m208.959 41.627-17.169-2.9 4.504-26.666 27.931 4.717-2.686 15.904c-1.005 5.944-6.636 9.949-12.58 8.945z" fill="#ed956e"/><path d="m209.094 57.955 12.099-8.906L215.95 24.2l-12.588 2.776-7.612 1.696 5.904 26.495c.745 3.344 4.681 4.819 7.44 2.788z" fill="#ed956e"/><path d="m192.054 12.274-1.147 6.791c-.042.247-.036.499.018.743l.522 2.391c.175.803-.17 1.63-.864 2.07l-.622.394-2.218 13.134a3.912 3.912 0 0 0 3.222 4.512l24.388 4.017 1.302-8.318z" fill="#ed956e"/><path d="m192.029 33.062-4.866-3.67a1.957 1.957 0 0 1 .153-3.229l6.559-4.032z" fill="#ed956e"/><path d="m199.017 43.695 2.239.369a2.089 2.089 0 0 1 1.672 2.625l-1.782 6.357m-9.69-33.406 3.414.577c.307.052.581.224.761.477l.914 1.286c.606.852-.121 2.012-1.152 1.838l-3.969-.67m.702 9.635-.585.786a1.96 1.96 0 0 1-1.337.774l-1.831.218.404-2.39z" fill="#002652" opacity=".07"/><path d="m206.583.213.555.094a4.306 4.306 0 0 1 3.529 4.964l-.855 5.062-.24 1.42-1.396 8.265-16.814-2.84a2.892 2.892 0 0 1-2.37-3.333l.216-1.28c1.387-8.208 9.166-13.739 17.375-12.352z" fill="#002652"/><path d="m210.596 20.996 18.122 3.061.865-5.124c1.383-8.186-4.133-15.943-12.319-17.325L212.422.79a3.38 3.38 0 0 0-3.895 2.769l-1.983 11.74a4.944 4.944 0 0 0 4.052 5.697z" fill="#002652"/><path d="m235.124 50.092-22.554 3.373c-4.177.625-7.929-2.618-7.917-6.841l.053-18.752-5.126-23.791 14.526-1.515c8.473-.883 16.306 4.462 18.626 12.581.142.499.2 1.02.203 1.538l.124 19.995a6.238 6.238 0 0 0 1.23 3.681l3.121 4.203c1.567 2.115.317 5.139-2.286 5.528z" fill="#002652"/><path d="m205.452 32.237-3.43-.579 1.539-7.127a4.409 4.409 0 0 1 5.043-3.416l.249.042c2.388.403 3.672 3.035 2.52 5.165l-2.224 4.112a3.534 3.534 0 0 1-3.697 1.803z" fill="#ed956e"/><path d="m90.328 110.254 71.543 10.22a37.714 37.714 0 0 1 19.654 9.087l26.827 23.732-6.419 7.99c-12.704 15.812-34.351 21.286-53.044 13.414l-31.483-13.259-33.256-26.469-.957-18.189c-.208-3.938 3.232-7.083 7.135-6.526z" fill="#bedbff"/><g fill="#ed956e"><path d="m228.572 67.124-5.364 6.16c-.249.286-.861 1.626-1.478 3.064-.705 1.642.774 3.382 2.506 2.942l7.384-1.877c.885-.282 9.522-4.218 8.318-7.128l1.457-6.336c.999-2.691-1.916-5.156-4.404-3.725l-3.717 2.139c-2.642 1.626-3.377 3.238-4.702 4.761z"/><path d="M221.436 78.047a3.994 3.994 0 0 0 .71 2.703l2.368 3.355.912 1.294c.153.276.492.356.768.203-.002-.011-.002-.011.009-.013.698-.529.931-1.592.513-2.588l-3.649-6.927c-.359-.681-1.383-.482-1.46.284z"/><path d="M226.107 85.815c.273.084.567.067.828-.048l4.717-2.079 1.449-.637c.3-.095.446-.412.351-.712-.011 0-.011 0-.011-.012-.38-.789-1.376-1.228-2.436-1.015l-4.876 1.431c-1.525.447-1.54 2.602-.022 3.072z"/><path d="m227.955 84.243 5.123-2.258 1.449-.637c.3-.095.446-.412.351-.712-.011 0-.011 0-.011-.012-.38-.789-1.376-1.228-2.436-1.015l-6.34 1.86c-1.088.319-1.1 1.857-.016 2.192z"/><path d="m221.76 76.678 3.912 6.33 2.26-1.519c.153.276.492.356.768.203-.002-.011-.002-.011.009-.013.698-.529.931-1.592.513-2.588l-3.603-6.839c-.372-.707-1.766-.028-2.638 1.463l-1.238 2.212a.74.74 0 0 0 .017.751z"/><path d="m229.038 82.036 5.123-2.258 1.449-.637c.3-.095.446-.412.351-.712-.011 0-.011 0-.011-.012-.38-.789-1.376-1.228-2.436-1.015l-6.34 1.86c-1.088.319-1.1 1.857-.016 2.192z"/></g><path d="m175.079 66.196-13.4 8.059.922-9.916h11.963c1.013 0 1.384 1.334.515 1.857z" fill="#002652" opacity=".1"/><path d="m122.984 253.909-37.996-.443 2.617-93.909c.204-7.319 6.197-13.145 13.519-13.143l5.506.002a13.518 13.518 0 0 1 12.547 8.499l6.097 15.245a56.712 56.712 0 0 1 3.737 27.055z" fill="#b0d3ff"/><path d="m128.757 165.933-9.108-3.101-12.377-10.375a21.28 21.28 0 0 0-8.58-4.354l-12.228-3.013 22.881-18.343 40 20z" fill="#bedbff"/><path d="M279.973 92.089a10.07 10.07 0 0 1-11.202 4.08l-2.187-.639c-3.147-.937-7.654-4.927-10.449-6.649L239.659 72.77l.005-12.716 25.66 8.971c4.55 1.4 8.79 3.656 12.495 6.645l2.933 4.937a10.07 10.07 0 0 1-.279 10.73z" fill="#016eea"/></svg></g></svg>