<?xml version="1.0" encoding="UTF-8" standalone="no"?>
<!DOCTYPE svg PUBLIC "-//W3C//DTD SVG 1.1//EN" "http://www.w3.org/Graphics/SVG/1.1/DTD/svg11.dtd">
<svg width="100%" height="100%" viewBox="0 0 3015 2067" version="1.1" xmlns="http://www.w3.org/2000/svg"
     xml:space="preserve"
     style="fill-rule:evenodd;clip-rule:evenodd;stroke-linejoin:round;stroke-miterlimit:2;">
    <g transform="matrix(1,0,0,1,-13357,-9295)">
        <g id="Icon" transform="matrix(0.785156,0,0,0.956944,13357,9295)">
            <rect x="0" y="0" width="3840" height="2160" style="fill:none;"/>
            <g>
                <g transform="matrix(3.26347,1.54592,-3.26347,1.54592,-1326.79,-6323.73)">
                    <path d="M2802.36,1996.11C2802.36,1996.11 2900.72,1996.38 2972.68,1996.57C3026.46,1996.72 3059.69,1963.77 3059.85,1910.14C3059.85,1910.14 3060.61,1655.58 3060.61,1655.58C3060.7,1624.47 3041.57,1586.07 3010.43,1554.89C2979.3,1523.7 2940.9,1504.48 2909.74,1504.48L2656.7,1504.48C2603.04,1504.48 2569.98,1537.54 2569.98,1591.2C2569.98,1754.99 2569.98,2133.69 2569.98,2133.69C2569.98,2145.83 2581.36,2161.37 2595.37,2168.38C2609.39,2175.38 2620.76,2171.22 2620.76,2159.08L2620.76,1616.59C2620.76,1578.64 2644.14,1555.26 2682.09,1555.26C2751.26,1555.26 2855.53,1555.26 2935.13,1555.26C2950.56,1555.26 2969.57,1564.78 2984.98,1580.22C3000.4,1595.66 3009.88,1614.67 3009.83,1630.08C3009.59,1710.08 3009.27,1815.11 3009.07,1884.64C3008.95,1922.59 2985.44,1945.89 2947.39,1945.79C2875.43,1945.6 2777.07,1945.33 2777.07,1945.33C2764.91,1945.3 2760.71,1956.65 2767.69,1970.66C2774.67,1984.68 2790.2,1996.08 2802.36,1996.11Z" style="fill:url(#_Linear1);"/>
                </g>
                <g transform="matrix(3.26347,1.54592,-3.26347,1.54592,-1378.04,-5977.35)">
                    <path d="M2806.14,1992.32C2806.14,1992.32 2904,1992.59 2975.9,1992.78C3030.04,1992.93 3063.32,1959.55 3063.07,1905.36C3062.57,1798.06 3061.72,1613.3 3061.72,1613.3C3061.66,1601.13 3050.24,1585.61 3036.22,1578.65C3022.21,1571.69 3010.88,1575.92 3010.94,1588.08C3010.94,1588.08 3011.79,1772.85 3012.29,1880.14C3012.47,1918.49 2988.92,1942.1 2950.61,1942C2878.71,1941.81 2780.86,1941.54 2780.86,1941.54C2768.7,1941.51 2764.5,1952.86 2771.48,1966.87C2778.46,1980.89 2793.99,1992.29 2806.14,1992.32Z" style="fill:url(#_Linear2);"/>
                </g>
                <g transform="matrix(3.26347,1.54592,-3.26347,1.54592,-1378.04,-5630.96)">
                    <path d="M2806.14,1992.32C2806.14,1992.32 2904,1992.59 2975.9,1992.78C3030.04,1992.93 3063.32,1959.55 3063.07,1905.36C3062.57,1798.06 3061.72,1613.3 3061.72,1613.3C3061.66,1601.13 3050.24,1585.61 3036.22,1578.65C3022.21,1571.69 3010.88,1575.92 3010.94,1588.08C3010.94,1588.08 3011.79,1772.85 3012.29,1880.14C3012.47,1918.49 2988.92,1942.1 2950.61,1942C2878.71,1941.81 2780.86,1941.54 2780.86,1941.54C2768.7,1941.51 2764.5,1952.86 2771.48,1966.87C2778.46,1980.89 2793.99,1992.29 2806.14,1992.32Z" style="fill:url(#_Linear3);"/>
                </g>
                <g transform="matrix(5.47427,0,0,4.49155,-17079.7,-3487.7)">
                    <path d="M3811.3,952.241C3811.3,938.865 3800.45,928.022 3787.08,928.022C3773.7,928.022 3762.86,938.865 3762.86,952.241C3762.86,965.617 3773.7,976.46 3787.08,976.46C3800.45,976.46 3811.3,965.617 3811.3,952.241ZM3784.28,965.065C3783.66,965.675 3782.68,965.675 3782.07,965.064L3771.91,954.908C3771.3,954.298 3771.3,953.309 3771.91,952.698L3774.12,950.489C3774.73,949.879 3775.72,949.879 3776.33,950.489L3783.17,957.331L3797.83,942.676C3798.43,942.066 3799.42,942.066 3800.03,942.676L3802.24,944.886C3802.85,945.496 3802.85,946.486 3802.24,947.096L3784.28,965.065Z" style="fill:url(#_Linear4);fill-rule:nonzero;"/>
                </g>
                <g transform="matrix(5.47427,0,0,4.49155,-17079.7,-3183.11)">
                    <path d="M3811.3,952.241C3811.3,938.865 3800.45,928.022 3787.08,928.022C3773.7,928.022 3762.86,938.865 3762.86,952.241C3762.86,965.617 3773.7,976.46 3787.08,976.46C3800.45,976.46 3811.3,965.617 3811.3,952.241ZM3784.28,965.065C3783.66,965.675 3782.68,965.675 3782.07,965.064L3771.91,954.908C3771.3,954.298 3771.3,953.309 3771.91,952.698L3774.12,950.489C3774.73,949.879 3775.72,949.879 3776.33,950.489L3783.17,957.331L3797.83,942.676C3798.43,942.066 3799.42,942.066 3800.03,942.676L3802.24,944.886C3802.85,945.496 3802.85,946.486 3802.24,947.096L3784.28,965.065Z" style="fill:url(#_Linear5);fill-rule:nonzero;"/>
                </g>
                <g transform="matrix(5.47427,0,0,4.49155,-17079.7,-2878.53)">
                    <path d="M3811.3,952.241C3811.3,938.865 3800.45,928.022 3787.08,928.022C3773.7,928.022 3762.86,938.865 3762.86,952.241C3762.86,965.617 3773.7,976.46 3787.08,976.46C3800.45,976.46 3811.3,965.617 3811.3,952.241ZM3784.28,965.065C3783.66,965.675 3782.68,965.675 3782.07,965.064L3771.91,954.908C3771.3,954.298 3771.3,953.309 3771.91,952.698L3774.12,950.489C3774.73,949.879 3775.72,949.879 3776.33,950.489L3783.17,957.331L3797.83,942.676C3798.43,942.066 3799.42,942.066 3800.03,942.676L3802.24,944.886C3802.85,945.496 3802.85,946.486 3802.24,947.096L3784.28,965.065Z" style="fill:url(#_Linear6);fill-rule:nonzero;"/>
                </g>
            </g>
        </g>
    </g>
    <defs>
        <linearGradient id="_Linear1" x1="0" y1="0" x2="1" y2="0" gradientUnits="userSpaceOnUse" gradientTransform="matrix(-1321.39,-1321.39,762.906,-762.906,4428.53,1823.01)"><stop offset="0" style="stop-color:rgb(58,33,247);stop-opacity:1"/><stop offset="1" style="stop-color:rgb(208,201,253);stop-opacity:1"/></linearGradient>
        <linearGradient id="_Linear2" x1="0" y1="0" x2="1" y2="0" gradientUnits="userSpaceOnUse" gradientTransform="matrix(-1321.39,-1321.39,762.906,-762.906,4324.35,1703.12)"><stop offset="0" style="stop-color:rgb(58,33,247);stop-opacity:1"/><stop offset="1" style="stop-color:rgb(208,201,253);stop-opacity:1"/></linearGradient>
        <linearGradient id="_Linear3" x1="0" y1="0" x2="1" y2="0" gradientUnits="userSpaceOnUse" gradientTransform="matrix(-1321.39,-1321.39,762.906,-762.906,4212.32,1591.09)"><stop offset="0" style="stop-color:rgb(58,33,247);stop-opacity:1"/><stop offset="1" style="stop-color:rgb(208,201,253);stop-opacity:1"/></linearGradient>
        <linearGradient id="_Linear4" x1="0" y1="0" x2="1" y2="0" gradientUnits="userSpaceOnUse" gradientTransform="matrix(5.56974e-14,-909.607,909.607,5.56974e-14,4430.89,1520.27)"><stop offset="0" style="stop-color:rgb(58,33,247);stop-opacity:1"/><stop offset="1" style="stop-color:rgb(208,201,253);stop-opacity:1"/></linearGradient>
        <linearGradient id="_Linear5" x1="0" y1="0" x2="1" y2="0" gradientUnits="userSpaceOnUse" gradientTransform="matrix(5.56974e-14,-909.607,909.607,5.56974e-14,4430.89,1452.46)"><stop offset="0" style="stop-color:rgb(58,33,247);stop-opacity:1"/><stop offset="1" style="stop-color:rgb(208,201,253);stop-opacity:1"/></linearGradient>
        <linearGradient id="_Linear6" x1="0" y1="0" x2="1" y2="0" gradientUnits="userSpaceOnUse" gradientTransform="matrix(5.56974e-14,-909.607,909.607,5.56974e-14,4430.89,1384.65)"><stop offset="0" style="stop-color:rgb(58,33,247);stop-opacity:1"/><stop offset="1" style="stop-color:rgb(208,201,253);stop-opacity:1"/></linearGradient>
    </defs>
</svg>
