<svg xmlns="http://www.w3.org/2000/svg"  viewBox="0 0 512 512" width="64px" height="64px"><polygon fill="#57a4ff" points="398 496 446 448 398 448 398 496"/><path fill="#57a4ff" d="M214,88a72.982,72.982,0,0,0-.44-8,72.049,72.049,0,1,0,.44,8Z"/><path fill="#57a4ff" d="M332.89,191.55c-.02-.1-.05-.21-.08-.31a41.7,41.7,0,0,0-10.53-19.02A39.305,39.305,0,0,0,294,160a40.015,40.015,0,0,0-40,40v7S285.51,214.88,332.89,191.55Z"/><path fill="#57a4ff" d="M326,288H310a16,16,0,0,1-32,0H262a40,40,0,0,0-40,40v5.79a111.892,111.892,0,0,0,144,0V328A40,40,0,0,0,326,288Z"/><path fill="#004fac" d="M448,72H222.39A80,80,0,1,0,136,167.6V496a8,8,0,0,0,8,8H400a8.008,8.008,0,0,0,5.66-2.34l48-48A8.008,8.008,0,0,0,456,448V80A8,8,0,0,0,448,72ZM80,88a64,64,0,1,1,64,64A64.072,64.072,0,0,1,80,88ZM408,476.69V456h20.69ZM440,440H400a8,8,0,0,0-8,8v40H152V167.6A80.115,80.115,0,0,0,224,88H440Z"/><path fill="#004fac" d="M296,128A120,120,0,1,0,416,248,120.134,120.134,0,0,0,296,128Zm0,224a103.547,103.547,0,0,1-66.38-24H232a32.042,32.042,0,0,1,32-32h9.38a23.99,23.99,0,0,0,45.24,0H328a32.042,32.042,0,0,1,32,32h2.38A103.547,103.547,0,0,1,296,352ZM270.35,216.28c12.94,0,32.94-2.34,57.65-12.79V232a32,32,0,0,1-64,0V216.08C265.88,216.2,267.99,216.28,270.35,216.28ZM264,200.04V200a32.042,32.042,0,0,1,32-32c12.65,0,23.86,8.04,29.01,19.34-19.84,8.84-36.12,11.77-46.71,12.62A92.371,92.371,0,0,1,264,200.04Zm40,79.28V288a8,8,0,0,1-16,0v-8.68a47.4,47.4,0,0,0,16,0Zm70.51,36.81A48.082,48.082,0,0,0,328,280h-8v-6.46A48.012,48.012,0,0,0,344,232V200c0-.23-.01-.45-.03-.68a49.189,49.189,0,0,0-13.93-32.66A47.093,47.093,0,0,0,296,152a48.051,48.051,0,0,0-48,48v32a48.012,48.012,0,0,0,24,41.54V280h-8a48.082,48.082,0,0,0-46.51,36.13,104,104,0,1,1,157.02,0Z"/><path fill="#004fac" d="M280,392H168a8,8,0,0,0,0,16H280a8,8,0,0,0,0-16Z"/><path fill="#004fac" d="M232,416H168a8,8,0,0,0,0,16h64a8,8,0,0,0,0-16Z"/><path fill="#004fac" d="M264,416h-8a8,8,0,0,0,0,16h8a8,8,0,0,0,0-16Z"/><path fill="#004fac" d="M304,400a8,8,0,0,0,8,8H424a8,8,0,0,0,0-16H312A8,8,0,0,0,304,400Z"/><path fill="#004fac" d="M376,416H312a8,8,0,0,0,0,16h64a8,8,0,0,0,0-16Z"/><path fill="#004fac" d="M408,416h-8a8,8,0,0,0,0,16h8a8,8,0,0,0,0-16Z"/><path fill="#004fac" d="M189.657,66.343a8,8,0,0,0-11.314,0L136,108.687,117.657,90.343a8,8,0,0,0-11.314,11.314l24,24a8,8,0,0,0,11.314,0l48-48A8,8,0,0,0,189.657,66.343Z"/></svg>