<svg xmlns="http://www.w3.org/2000/svg"  viewBox="0 0 512 512" width="64px" height="64px"><path fill="#57a4ff" d="M398,160A144,144,0,1,0,254,304,144,144,0,0,0,398,160Zm-256,0a112,112,0,1,1,184,85.79V240a40,40,0,0,0-40-40H270a16,16,0,0,1-32,0H222a40,40,0,0,0-40,40v5.79A111.731,111.731,0,0,1,142,160Z"/><rect width="80" height="80" x="214" y="416" fill="#57a4ff"/><rect width="80" height="80" x="14" y="416" fill="#57a4ff"/><rect width="80" height="80" x="414" y="416" fill="#57a4ff"/><path fill="#57a4ff" d="M292.89,103.55c-.02-.1-.05-.21-.08-.31a41.7,41.7,0,0,0-10.53-19.02A39.305,39.305,0,0,0,254,72a40.015,40.015,0,0,0-40,40v7S245.51,126.88,292.89,103.55Z"/><path fill="#004fac" d="M496,408H464V352a8,8,0,0,0-8-8H264V311.79c80.11-4.17,144-70.66,144-151.79C408,76.19,339.81,8,256,8S104,76.19,104,160c0,81.13,63.89,147.62,144,151.79V344H56a8,8,0,0,0-8,8v56H16a8,8,0,0,0-8,8v80a8,8,0,0,0,8,8H96a8,8,0,0,0,8-8V416a8,8,0,0,0-8-8H64V360H248v48H216a8,8,0,0,0-8,8v80a8,8,0,0,0,8,8h80a8,8,0,0,0,8-8V416a8,8,0,0,0-8-8H264V360H448v48H416a8,8,0,0,0-8,8v80a8,8,0,0,0,8,8h80a8,8,0,0,0,8-8V416A8,8,0,0,0,496,408ZM88,424v64H24V424Zm200,0v64H224V424ZM256,296c-74.99,0-136-61.01-136-136S181.01,24,256,24,392,85.01,392,160,330.99,296,256,296ZM488,488H424V424h64Z"/><path fill="#004fac" d="M256,40A120,120,0,1,0,376,160,120.134,120.134,0,0,0,256,40Zm0,224a103.547,103.547,0,0,1-66.38-24H192a32.042,32.042,0,0,1,32-32h9.38a23.99,23.99,0,0,0,45.24,0H288a32.042,32.042,0,0,1,32,32h2.38A103.547,103.547,0,0,1,256,264ZM230.35,128.28c12.94,0,32.94-2.34,57.65-12.79V144a32,32,0,0,1-64,0V128.08C225.88,128.2,227.99,128.28,230.35,128.28ZM224,112.03V112a32.042,32.042,0,0,1,32-32c12.65,0,23.86,8.04,29.01,19.34-19.84,8.84-36.12,11.77-46.71,12.62A90.9,90.9,0,0,1,224,112.03Zm40,79.29V200a8,8,0,0,1-16,0v-8.68a47.4,47.4,0,0,0,16,0Zm70.51,36.81A48.082,48.082,0,0,0,288,192h-8v-6.46A48.012,48.012,0,0,0,304,144V112c0-.23-.01-.45-.03-.68a49.189,49.189,0,0,0-13.93-32.66A47.093,47.093,0,0,0,256,64a48.051,48.051,0,0,0-48,48v32a48.012,48.012,0,0,0,24,41.54V192h-8a48.082,48.082,0,0,0-46.51,36.13,104,104,0,1,1,157.02,0Z"/></svg>