<svg xmlns="http://www.w3.org/2000/svg"  viewBox="0 0 512 512" width="64px" height="64px"><path fill="#57a4ff" d="M496,352v16a32,32,0,0,1-32,32H48a32,32,0,0,1-32-32V352Z"/><rect width="192" height="24" x="160" y="448" fill="#57a4ff"/><rect width="144" height="32" x="184" y="264" fill="#57a4ff"/><g><path fill="#57a4ff" d="M184,88h80a0,0,0,0,1,0,0v96a0,0,0,0,1,0,0H184a32,32,0,0,1-32-32V120A32,32,0,0,1,184,88Z"/><rect width="32" height="176" x="328" y="48" fill="#57a4ff" rx="16" ry="16"/><polygon fill="#57a4ff" points="216 240 192 240 184 184 208 184 216 240"/></g><g><path fill="#004fac" d="M464,104H368V64a24,24,0,0,0-47.28-5.81L262.55,80H184a40.06,40.06,0,0,0-36.65,24H48A40.04,40.04,0,0,0,8,144V368a40.04,40.04,0,0,0,40,40H204.68l-11.33,32H160a8,8,0,0,0-8,8v24a8,8,0,0,0,8,8H352a8,8,0,0,0,8-8V448a8,8,0,0,0-8-8H317.65l-11.33-32H464a40.04,40.04,0,0,0,40-40V144A40.04,40.04,0,0,0,464,104ZM336,64a8,8,0,0,1,16,0V208a8,8,0,0,1-16,0ZM272,93.54l48-18V196.46l-48-18ZM160,120a24.032,24.032,0,0,1,24-24h72v80H184a24.032,24.032,0,0,1-24-24Zm46.78,112h-7.84l-5.72-40h7.84ZM344,456v8H168v-8ZM210.32,440l11.33-32h67.7l11.33,32ZM488,368a24.032,24.032,0,0,1-24,24H48a24.032,24.032,0,0,1-24-24v-8H488Zm0-24H24V144a24.032,24.032,0,0,1,24-24h96v32a40.056,40.056,0,0,0,32.97,39.37l7.11,49.76A8,8,0,0,0,192,248h24a8.008,8.008,0,0,0,7.92-9.13L217.22,192h45.33l58.17,21.81A24,24,0,0,0,368,208V120h96a24.032,24.032,0,0,1,24,24Z"/><path fill="#004fac" d="M104,368H48a8,8,0,0,0,0,16h56a8,8,0,0,0,0-16Z"/><path fill="#004fac" d="M136,368h-8a8,8,0,0,0,0,16h8a8,8,0,0,0,0-16Z"/><path fill="#004fac" d="M184,304H328a8,8,0,0,0,8-8V264a8,8,0,0,0-8-8H184a8,8,0,0,0-8,8v32A8,8,0,0,0,184,304Zm8-32H320v16H192Z"/><path fill="#004fac" d="M288,312H224a8,8,0,0,0,0,16h64a8,8,0,0,0,0-16Z"/></g></svg>