<svg xmlns="http://www.w3.org/2000/svg"  viewBox="0 0 512 512" width="64px" height="64px"><path fill="#57a4ff" d="M193.58,201.5,200,232l-28.69-13.52a104.039,104.039,0,0,1-131.3-24.02c.04-10.52.15-32.31.32-33.62l15.56-.04a72.017,72.017,0,0,0,123.28,8.23,11.8,11.8,0,0,0,1.98-8.52l37.69-.09A103.9,103.9,0,0,1,193.58,201.5Z"/><path fill="#57a4ff" d="M256,184V160.34l24-.06V192H264A8,8,0,0,1,256,184Z"/><path fill="#57a4ff" d="M392,192H376V160.06l23.96-.06c.03.32.04.66.04,1v24C400,188.42,396.42,192,392,192Z"/><path fill="#57a4ff" d="M440,296v64H400v64H256V360H216V296a24.006,24.006,0,0,1,24-24l64-16c0,8.84,15.16,16,24,16s24-7.16,24-16l64,16A24.006,24.006,0,0,1,440,296Z"/><path fill="#57a4ff" d="M126.97,150.97,128,152l2.35-2.35A24.178,24.178,0,0,1,126.97,150.97ZM96,120l1.03,1.03a24.178,24.178,0,0,1,1.32-3.38Zm30.97,30.97L128,152l2.35-2.35A24.178,24.178,0,0,1,126.97,150.97ZM97.03,121.03a24.178,24.178,0,0,1,1.32-3.38L96,120ZM120,24a104,104,0,1,0,51.31,194.48L200,232l-6.42-30.5a103.9,103.9,0,0,0,25.26-41.08h.01c.05-.14.09-.28.13-.42A104.068,104.068,0,0,0,120,24Zm59.17,145.03A72,72,0,1,1,78.97,68.83a11.971,11.971,0,0,1,15.28,1.42l17.26,17.26a12,12,0,0,1,0,16.98l-1.86,1.86-11.3,11.3L96,120l1.03,1.03a24.013,24.013,0,0,0,29.94,29.94L128,152l2.35-2.35,11.3-11.3,1.86-1.86a12,12,0,0,1,16.98,0l17.26,17.26a12.061,12.061,0,0,1,3.4,6.76A11.8,11.8,0,0,1,179.17,169.03ZM96,120l1.03,1.03a24.178,24.178,0,0,1,1.32-3.38Zm30.97,30.97L128,152l2.35-2.35A24.178,24.178,0,0,1,126.97,150.97ZM96,120l1.03,1.03a24.178,24.178,0,0,1,1.32-3.38Z"/><path fill="#57a4ff" d="M496,424v32a24.006,24.006,0,0,1-24,24H40a24.006,24.006,0,0,1-24-24V424H216l8,24h64l8-24Z"/><path fill="#57a4ff" d="M376,144c-24,16-96,16-96,16V144a32,32,0,0,1,32-32h32A32,32,0,0,1,376,144Z"/><path fill="#57a4ff" d="M376,144v16.06l-96,.22V160S352,160,376,144Z"/><path fill="#57a4ff" d="M440,296v64H400v64H256V360H216V296a24.006,24.006,0,0,1,24-24l64-16c0,8.84,15.16,16,24,16s24-7.16,24-16l64,16A24.006,24.006,0,0,1,440,296Z"/><path fill="#57a4ff" d="M328,272H304V256C304,264.84,319.16,272,328,272Z"/><path fill="#57a4ff" d="M352,256v16H328C336.84,272,352,264.84,352,256Z"/><path fill="#57a4ff" d="M280,152v40H264a8,8,0,0,1-8-8V160a8,8,0,0,1,8-8Z"/><path fill="#57a4ff" d="M400,161v24c0,3.42-3.58,7-8,7H376V152h16c4.14,0,7.54,3.14,7.96,8C399.99,160.32,400,160.66,400,161Z"/><path fill="#57a4ff" d="M130.35,149.65a24.178,24.178,0,0,1-3.38,1.32Z"/><path fill="#57a4ff" d="M98.35,117.65a24.178,24.178,0,0,0-1.32,3.38Z"/><g><path fill="#004fac" d="M496,416H480V200a48.051,48.051,0,0,0-48-48H405.7a15.494,15.494,0,0,0-13.7-8h-8a40.04,40.04,0,0,0-40-40H312a40.04,40.04,0,0,0-40,40h-8a16.019,16.019,0,0,0-13.84,8H229.43A112.014,112.014,0,1,0,8,128a111.425,111.425,0,0,0,24,69.19V416H16a8,8,0,0,0-8,8v32a32.03,32.03,0,0,0,32,32H472a32.03,32.03,0,0,0,32-32V424A8,8,0,0,0,496,416ZM384,160h7.83a2.373,2.373,0,0,1,.17,1v23h-8Zm0,48v-8h8c8.67,0,16-6.87,16-15V168h24a32.03,32.03,0,0,1,32,32V416H448V296a32.035,32.035,0,0,0-30.95-31.98L360,249.75v-5.1A40.06,40.06,0,0,0,384,208Zm24,144V328a8,8,0,0,0-16,0v88H264V328a8,8,0,0,0-16,0v24H224V296a16.021,16.021,0,0,1,16-16,7.93,7.93,0,0,0,1.94-.24l57.04-14.26c5.91,8.98,19.34,14.5,29.02,14.5,5.91,0,13.34-2.22,19.39-5.8a29.017,29.017,0,0,0,9.62-8.7l57.05,14.26A7.93,7.93,0,0,0,416,280a16.021,16.021,0,0,1,16,16v56Zm24,16v48H408V368ZM284.9,432l-2.67,8H229.77l-2.67-8ZM224,416V368h24v48Zm88-160v-8h32v7.98c-.28,2.07-8.66,8.02-16,8.02S312.27,258.04,312,256ZM288,144a24.032,24.032,0,0,1,24-24h32a24.03,24.03,0,0,1,23.58,19.58c-18.38,8.86-57.91,11.72-79.58,12.3Zm0,23.87c7.33-.2,18.94-.68,31.76-1.91,20.47-1.95,36.6-5.06,48.24-9.29V208a24.032,24.032,0,0,1-24,24H312a23.937,23.937,0,0,1-17.87-8H320a8,8,0,0,0,0-16H288Zm-24-7.68c0-.06.01-.12.01-.19H272v24h-8ZM264,200h8v8h-8Zm-16-32v48a8,8,0,0,0,8,8h19.35A40.252,40.252,0,0,0,296,244.65v5.1l-57.05,14.27A32.035,32.035,0,0,0,208,296V416H48V213.72a111.922,111.922,0,0,0,123.57,13.72l25.02,11.8a8,8,0,0,0,11.24-8.89l-5.55-26.36A111.3,111.3,0,0,0,224.67,168ZM24,128a96,96,0,1,1,187.5,29.2,6.456,6.456,0,0,0-.25.78,95.617,95.617,0,0,1-23.33,37.87,8.008,8.008,0,0,0-2.17,7.3l3.11,14.76-14.14-6.67a7.98,7.98,0,0,0-7.36.29A96.035,96.035,0,0,1,24,128ZM488,456a16.021,16.021,0,0,1-16,16H40a16.021,16.021,0,0,1-16-16V432H210.23l6.18,18.53A8,8,0,0,0,224,456h64a8,8,0,0,0,7.59-5.47L301.77,432H488Z"/><path fill="#004fac" d="M144,440H64a8,8,0,0,0,0,16h80a8,8,0,0,0,0-16Z"/><path fill="#004fac" d="M176,440h-8a8,8,0,0,0,0,16h8a8,8,0,0,0,0-16Z"/><path fill="#004fac" d="M120,208a79.419,79.419,0,0,0,46.98-15.24v-.01a80,80,0,0,0,18.76-19.16,19.942,19.942,0,0,0-2.33-25.49l-17.27-17.27a20.014,20.014,0,0,0-28.28,0l-12.1,12.1c-.37.14-.74.27-1.13.39a16.013,16.013,0,0,1-19.95-19.95c.12-.39.25-.76.39-1.13l12.1-12.1a20.014,20.014,0,0,0,0-28.28L99.9,64.59a19.942,19.942,0,0,0-25.49-2.33A79.946,79.946,0,0,0,55.25,81.02h-.01A80.008,80.008,0,0,0,120,208Zm29.17-65.86a4.008,4.008,0,0,1,5.66,0l17.27,17.27a3.968,3.968,0,0,1,.5,5.06,64.3,64.3,0,0,1-9.75,11.07L139.31,152ZM83.53,75.4a3.968,3.968,0,0,1,5.06.5l17.27,17.27a4.008,4.008,0,0,1,0,5.66L96,108.69,72.46,85.15A64.3,64.3,0,0,1,83.53,75.4ZM63.18,98.5,88.3,123.61a32.017,32.017,0,0,0,36.09,36.09l25.11,25.12A64.038,64.038,0,0,1,63.18,98.5Z"/></g></svg>